<svg xmlns="http://www.w3.org/2000/svg" width="76.711" height="93.113" viewBox="0 0 76.711 93.113">
  <g id="Group_495" data-name="Group 495" transform="translate(-552.345 -89.687)">
    <g id="Group_490" data-name="Group 490" transform="translate(560.345 129.098)">
      <path id="Path_833" data-name="Path 833" d="M589.248,164.765,565.787,151.22l23.394-13.506,23.462,13.545Z" transform="translate(-557.343 -114.7)" fill="#848484" opacity="0.2"/>
      <g id="Group_458" data-name="Group 458" transform="translate(-8 -7.551)">
        <path id="Path_834" data-name="Path 834" d="M570.4,146.378l-10.483-6.052,10.417-6.014,10.482,6.052Z" transform="translate(-559.566 -118.436)" fill="#e6e6e6"/>
        <g id="Group_457" data-name="Group 457">
          <g id="Group_453" data-name="Group 453" transform="translate(4.375 4.566)">
            <g id="Group_451" data-name="Group 451" transform="translate(0 11.835)">
              <path id="Path_835" data-name="Path 835" d="M569.26,142.869l-6.425-3.71v-1.792l6.425,3.71Z" transform="translate(-562.835 -133.681)" fill="#20000b"/>
              <path id="Path_836" data-name="Path 836" d="M567.5,142.863l6.385-3.686v-1.792l-6.385,3.686Z" transform="translate(-561.071 -133.675)" fill="#362128"/>
              <path id="Path_837" data-name="Path 837" d="M569.26,142.09l-6.425-3.71,6.385-3.686,6.425,3.71Z" transform="translate(-562.835 -134.693)" fill="#5d404a"/>
            </g>
            <g id="Group_452" data-name="Group 452" transform="translate(3.413)">
              <path id="Path_838" data-name="Path 838" d="M568.312,142.978l-3-1.733V127.358l3,1.733Z" transform="translate(-565.311 -125.636)" fill="#20000b"/>
              <path id="Path_839" data-name="Path 839" d="M567.488,142.975l2.983-1.722V127.366l-2.983,1.722Z" transform="translate(-564.487 -125.633)" fill="#362128"/>
              <path id="Path_840" data-name="Path 840" d="M568.312,129.563l-3-1.733,2.983-1.722,3,1.733Z" transform="translate(-565.311 -126.109)" fill="#5d404a"/>
            </g>
          </g>
          <g id="Group_456" data-name="Group 456">
            <g id="Group_454" data-name="Group 454" transform="translate(10.865 6.273)">
              <path id="Path_841" data-name="Path 841" d="M574.07,129.682v-1.3l1.8-1.039v1.3Z" transform="translate(-565.072 -127.347)" fill="#6d382c"/>
              <path id="Path_842" data-name="Path 842" d="M572.764,130.436v-1.3l1.8-1.039v1.3Z" transform="translate(-565.566 -127.061)" fill="#6f3f34"/>
              <path id="Path_843" data-name="Path 843" d="M571.459,131.19v-1.3l1.8-1.039v1.3Z" transform="translate(-566.06 -126.776)" fill="#87553b"/>
              <path id="Path_844" data-name="Path 844" d="M567.543,133.451v-1.3l1.8-1.039v1.3Z" transform="translate(-567.543 -125.92)" fill="#87553b"/>
              <path id="Path_845" data-name="Path 845" d="M570.154,131.943v-1.3l1.8-1.039v1.3Z" transform="translate(-566.555 -126.49)" fill="#783d29"/>
              <path id="Path_846" data-name="Path 846" d="M568.848,132.7v-1.3l1.8-1.039v1.3Z" transform="translate(-567.049 -126.205)" fill="#733c2f"/>
            </g>
            <g id="Group_455" data-name="Group 455">
              <path id="Path_847" data-name="Path 847" d="M577.054,130.108l-10.865-6.273,1.8-1.039,10.865,6.273Z" transform="translate(-557.191 -122.796)" fill="#935344"/>
              <path id="Path_848" data-name="Path 848" d="M575.748,130.862l-10.865-6.273,1.8-1.039,10.865,6.273Z" transform="translate(-557.685 -122.511)" fill="#955c4f"/>
              <path id="Path_849" data-name="Path 849" d="M574.443,131.616l-10.865-6.273,1.8-1.039,10.865,6.273Z" transform="translate(-558.18 -122.226)" fill="#a86744"/>
              <path id="Path_850" data-name="Path 850" d="M570.527,133.876,559.662,127.6l1.8-1.039,10.865,6.273Z" transform="translate(-559.662 -121.37)" fill="#a86744"/>
              <path id="Path_851" data-name="Path 851" d="M573.138,132.369,562.273,126.1l1.8-1.039,10.865,6.273Z" transform="translate(-558.674 -121.94)" fill="#9e5840"/>
              <path id="Path_852" data-name="Path 852" d="M571.832,133.123l-10.865-6.273,1.8-1.039,10.865,6.273Z" transform="translate(-559.168 -121.655)" fill="#995748"/>
            </g>
            <path id="Path_853" data-name="Path 853" d="M559.662,127.318v1.3l10.865,6.273v-1.3Z" transform="translate(-559.662 -121.084)" fill="#522e1c"/>
          </g>
        </g>
      </g>
      <g id="Group_474" data-name="Group 474" transform="translate(47.049 25.761)">
        <path id="Path_874" data-name="Path 874" d="M600.9,164.013l-10.482-6.052,10.417-6.014L611.316,158Z" transform="translate(-590.067 -136.071)" fill="#e6e6e6"/>
        <g id="Group_473" data-name="Group 473">
          <g id="Group_469" data-name="Group 469" transform="translate(4.375 4.566)">
            <g id="Group_467" data-name="Group 467" transform="translate(0 11.835)">
              <path id="Path_875" data-name="Path 875" d="M599.761,160.5l-6.425-3.71V155l6.425,3.71Z" transform="translate(-593.336 -151.316)" fill="#20000b"/>
              <path id="Path_876" data-name="Path 876" d="M598,160.5l6.385-3.686v-1.792L598,158.705Z" transform="translate(-591.571 -151.309)" fill="#362128"/>
              <path id="Path_877" data-name="Path 877" d="M599.761,159.724l-6.425-3.71,6.385-3.686,6.425,3.71Z" transform="translate(-593.336 -152.328)" fill="#5d404a"/>
            </g>
            <g id="Group_468" data-name="Group 468" transform="translate(3.413)">
              <path id="Path_878" data-name="Path 878" d="M598.813,160.612l-3-1.733V144.992l3,1.733Z" transform="translate(-595.812 -143.27)" fill="#20000b"/>
              <path id="Path_879" data-name="Path 879" d="M597.989,160.609l2.982-1.722V145l-2.982,1.722Z" transform="translate(-594.988 -143.268)" fill="#362128"/>
              <path id="Path_880" data-name="Path 880" d="M598.813,147.2l-3-1.733,2.983-1.722,3,1.733Z" transform="translate(-595.812 -143.743)" fill="#5d404a"/>
            </g>
          </g>
          <g id="Group_472" data-name="Group 472">
            <g id="Group_470" data-name="Group 470" transform="translate(10.865 6.273)">
              <path id="Path_881" data-name="Path 881" d="M604.57,147.317v-1.3l1.8-1.039v1.3Z" transform="translate(-595.573 -144.981)" fill="#6d382c"/>
              <path id="Path_882" data-name="Path 882" d="M603.265,148.071v-1.3l1.8-1.039v1.3Z" transform="translate(-596.067 -144.696)" fill="#6f3f34"/>
              <path id="Path_883" data-name="Path 883" d="M601.96,148.824v-1.3l1.8-1.039v1.3Z" transform="translate(-596.561 -144.41)" fill="#87553b"/>
              <path id="Path_884" data-name="Path 884" d="M598.044,151.085v-1.3l1.8-1.039v1.3Z" transform="translate(-598.044 -143.554)" fill="#87553b"/>
              <path id="Path_885" data-name="Path 885" d="M600.654,149.578v-1.3l1.8-1.039v1.3Z" transform="translate(-597.055 -144.125)" fill="#783d29"/>
              <path id="Path_886" data-name="Path 886" d="M599.349,150.332v-1.3l1.8-1.039v1.3Z" transform="translate(-597.55 -143.84)" fill="#733c2f"/>
            </g>
            <g id="Group_471" data-name="Group 471">
              <path id="Path_887" data-name="Path 887" d="M607.554,147.743l-10.865-6.273,1.8-1.039,10.865,6.273Z" transform="translate(-587.692 -140.431)" fill="#935344"/>
              <path id="Path_888" data-name="Path 888" d="M606.249,148.5l-10.865-6.273,1.8-1.039,10.865,6.273Z" transform="translate(-588.186 -140.146)" fill="#955c4f"/>
              <path id="Path_889" data-name="Path 889" d="M604.944,149.25l-10.865-6.273,1.8-1.039,10.865,6.273Z" transform="translate(-588.68 -139.861)" fill="#a86744"/>
              <path id="Path_890" data-name="Path 890" d="M601.028,151.511l-10.865-6.273,1.8-1.039,10.865,6.273Z" transform="translate(-590.163 -139.005)" fill="#a86744"/>
              <path id="Path_891" data-name="Path 891" d="M603.638,150l-10.865-6.273,1.8-1.039,10.865,6.273Z" transform="translate(-589.174 -139.575)" fill="#9e5840"/>
              <path id="Path_892" data-name="Path 892" d="M602.333,150.757l-10.865-6.273,1.8-1.039,10.865,6.273Z" transform="translate(-589.669 -139.29)" fill="#995748"/>
            </g>
            <path id="Path_893" data-name="Path 893" d="M590.163,144.953v1.3l10.865,6.273v-1.3Z" transform="translate(-590.163 -138.719)" fill="#522e1c"/>
          </g>
        </g>
      </g>
      <g id="Group_479" data-name="Group 479" transform="translate(21.391 10.8)">
        <path id="Path_894" data-name="Path 894" d="M585.66,154.9l-10.482-6.052,10.417-6.014,10.482,6.052Z" transform="translate(-575.178 -123.56)" fill="#4a323a"/>
        <path id="Path_895" data-name="Path 895" d="M579.2,147.479l-4.024,1.372,10.417-6.014-.007.956Z" transform="translate(-575.178 -123.56)" fill="#29191e"/>
        <g id="Group_478" data-name="Group 478">
          <g id="Group_477" data-name="Group 477">
            <g id="Group_475" data-name="Group 475" transform="translate(0 20.233)">
              <path id="Path_896" data-name="Path 896" d="M585.66,154.148,575.178,148.1v-.9l10.482,6.052Z" transform="translate(-575.178 -142.141)" fill="#20000b"/>
              <path id="Path_897" data-name="Path 897" d="M582.782,154.137l10.417-6.014v-.9l-10.417,6.014Z" transform="translate(-572.299 -142.13)" fill="#362128"/>
              <path id="Path_898" data-name="Path 898" d="M584.522,150.926l-6.425-3.71,6.385-3.686,6.425,3.71Z" transform="translate(-574.073 -143.53)" fill="#5d404a"/>
            </g>
            <g id="Group_476" data-name="Group 476" transform="translate(7.438)">
              <path id="Path_899" data-name="Path 899" d="M583.574,154.121l-3-1.733V130.1l3,1.733Z" transform="translate(-580.573 -128.381)" fill="#20000b"/>
              <path id="Path_900" data-name="Path 900" d="M582.75,154.118l2.982-1.722V130.111l-2.982,1.722Z" transform="translate(-579.749 -128.378)" fill="#362128"/>
              <path id="Path_901" data-name="Path 901" d="M583.574,132.309l-3-1.733,2.983-1.722,3,1.733Z" transform="translate(-580.573 -128.854)" fill="#5d404a"/>
            </g>
          </g>
        </g>
      </g>
      <path id="Path_922" data-name="Path 922" d="M582.8,145.649v-1.3L606.2,130.846v1.3Z" transform="translate(-550.9 -117.3)" fill="#87553b"/>
      <path id="Path_923" data-name="Path 923" d="M589.248,148.072l-23.461-13.545,23.394-13.506,23.462,13.546Z" transform="translate(-557.343 -121.02)" fill="#a86744"/>
      <path id="Path_924" data-name="Path 924" d="M565.787,130.817v1.3l23.461,13.546v-1.3Z" transform="translate(-557.343 -117.311)" fill="#522e1c"/>
      <g id="Group_488" data-name="Group 488" transform="translate(8.444)">
        <path id="Path_925" data-name="Path 925" d="M589.248,144.648,565.787,131.1l1.8-1.039,23.461,13.545Z" transform="translate(-565.787 -117.596)" fill="#ba7551"/>
        <path id="Path_926" data-name="Path 926" d="M590.554,143.894l-23.462-13.545,1.8-1.039,23.461,13.546Z" transform="translate(-565.293 -117.881)" fill="#bf7a57"/>
        <path id="Path_927" data-name="Path 927" d="M591.859,143.141,568.4,129.6l1.8-1.039L593.659,142.1Z" transform="translate(-564.798 -118.167)" fill="#ba7961"/>
        <path id="Path_928" data-name="Path 928" d="M593.164,142.387,569.7,128.842l1.8-1.039,23.462,13.546Z" transform="translate(-564.304 -118.452)" fill="#c27e5b"/>
        <path id="Path_929" data-name="Path 929" d="M594.47,141.634l-23.462-13.546,1.8-1.039,23.462,13.546Z" transform="translate(-563.81 -118.737)" fill="#ba7961"/>
        <path id="Path_930" data-name="Path 930" d="M595.775,140.88l-23.462-13.546,1.8-1.039,23.462,13.546Z" transform="translate(-563.316 -119.023)" fill="#bf7a57"/>
        <path id="Path_931" data-name="Path 931" d="M597.08,140.126l-23.462-13.546,1.8-1.039,23.462,13.545Z" transform="translate(-562.821 -119.308)" fill="#c27e5b"/>
        <path id="Path_932" data-name="Path 932" d="M598.386,139.373l-23.462-13.545,1.8-1.039,23.462,13.546Z" transform="translate(-562.327 -119.593)" fill="#b36e5f"/>
        <path id="Path_933" data-name="Path 933" d="M599.691,138.619l-23.462-13.546,1.8-1.039L601.49,137.58Z" transform="translate(-561.833 -119.879)" fill="#ba7961"/>
        <path id="Path_934" data-name="Path 934" d="M601,137.866,577.535,124.32l1.8-1.039L602.8,136.827Z" transform="translate(-561.339 -120.164)" fill="#bf7a57"/>
        <path id="Path_935" data-name="Path 935" d="M602.3,137.112,578.84,123.566l1.8-1.039L604.1,136.073Z" transform="translate(-560.845 -120.45)" fill="#c27e5b"/>
        <path id="Path_936" data-name="Path 936" d="M603.607,136.358l-23.462-13.546,1.8-1.039,23.462,13.546Z" transform="translate(-560.35 -120.735)" fill="#b36e5f"/>
        <path id="Path_937" data-name="Path 937" d="M604.912,135.6l-23.462-13.546,1.8-1.039,23.462,13.546Z" transform="translate(-559.856 -121.02)" fill="#b4745d"/>
      </g>
      <g id="Group_489" data-name="Group 489" transform="translate(31.905 13.546)">
        <path id="Path_938" data-name="Path 938" d="M582.8,140.928v1.3l1.8-1.039v-1.3Z" transform="translate(-582.805 -127.421)" fill="#87553b"/>
        <path id="Path_939" data-name="Path 939" d="M584.11,140.174v1.3l1.8-1.039v-1.3Z" transform="translate(-582.311 -127.707)" fill="#783d29"/>
        <path id="Path_940" data-name="Path 940" d="M585.415,139.421v1.3l1.8-1.039v-1.3Z" transform="translate(-581.816 -127.992)" fill="#6f3f34"/>
        <path id="Path_941" data-name="Path 941" d="M586.721,138.667v1.3l1.8-1.039v-1.3Z" transform="translate(-581.322 -128.277)" fill="#87553b"/>
        <path id="Path_942" data-name="Path 942" d="M588.026,137.913v1.3l1.8-1.039v-1.3Z" transform="translate(-580.828 -128.563)" fill="#6f3f34"/>
        <path id="Path_943" data-name="Path 943" d="M589.331,137.16v1.3l1.8-1.039v-1.3Z" transform="translate(-580.334 -128.848)" fill="#783d29"/>
        <path id="Path_944" data-name="Path 944" d="M590.637,136.406v1.3l1.8-1.039v-1.3Z" transform="translate(-579.839 -129.134)" fill="#87553b"/>
        <path id="Path_945" data-name="Path 945" d="M591.942,135.653v1.3l1.8-1.039v-1.3Z" transform="translate(-579.345 -129.419)" fill="#6f3f34"/>
        <path id="Path_946" data-name="Path 946" d="M593.247,134.9v1.3l1.8-1.039v-1.3Z" transform="translate(-578.851 -129.704)" fill="#6d382c"/>
        <path id="Path_947" data-name="Path 947" d="M594.553,134.145v1.3l1.8-1.039v-1.3Z" transform="translate(-578.357 -129.99)" fill="#783d29"/>
        <path id="Path_948" data-name="Path 948" d="M595.858,133.392v1.3l1.8-1.039v-1.3Z" transform="translate(-577.863 -130.275)" fill="#87553b"/>
        <path id="Path_949" data-name="Path 949" d="M597.163,132.638v1.3l1.8-1.039v-1.3Z" transform="translate(-577.368 -130.56)" fill="#6f3f34"/>
        <path id="Path_950" data-name="Path 950" d="M598.469,131.885v1.3l1.8-1.039v-1.3Z" transform="translate(-576.874 -130.846)" fill="#6d382c"/>
      </g>
      <path id="Path_951" data-name="Path 951" d="M585.628,149.914l.033,3.715-10.482-6.052L579.2,146.2Z" transform="translate(-553.787 -111.485)" fill="#362128"/>
      <path id="Path_952" data-name="Path 952" d="M593.207,147.608l-4.064-1.387-6.385,3.686.033,3.715Z" transform="translate(-550.917 -111.478)" fill="#523841"/>
    </g>
    <path id="Path_953" data-name="Path 953" d="M599.426,133.715l-7.461,8.493-8.541,2.5-17.637-10.183,23.395-13.506,7.984,4.609Z" transform="translate(3.002 8.078)" fill="#262626" opacity="0.17"/>
    <g id="Group_493" data-name="Group 493" transform="translate(589.731 130.954)">
      <g id="Group_491" data-name="Group 491" transform="translate(0 10.039)">
        <path id="Path_954" data-name="Path 954" d="M584.757,130.315,583,129.958l-1.569.568-.2,1.065,1.317.76,1.844-.117.983-.906Z" transform="translate(-580.881 -129.531)"/>
        <path id="Path_955" data-name="Path 955" d="M585.1,130.066l-2.05-.417-1.834.663-.236,1.244,1.539.889,2.156-.136,1.149-1.059Z" transform="translate(-580.978 -129.648)" fill="#5b514c"/>
        <path id="Path_956" data-name="Path 956" d="M580.978,131.032v.284l1.539.889v-.284Z" transform="translate(-580.978 -129.124)" fill="#211515"/>
        <path id="Path_957" data-name="Path 957" d="M584.249,131.577v.284l-2.156.136v-.284Z" transform="translate(-580.555 -128.918)" fill="#291d1d"/>
        <path id="Path_958" data-name="Path 958" d="M584.806,130.81v.284l-1.149,1.059v-.284Z" transform="translate(-579.963 -129.208)" fill="#38312f"/>
      </g>
      <g id="Group_492" data-name="Group 492" transform="translate(0.991)">
        <path id="Path_959" data-name="Path 959" d="M584.13,130.242,582.919,130l-1.083.392-.14.735.909.525,1.273-.081.679-.625Z" transform="translate(-581.696 -119.478)"/>
        <path id="Path_960" data-name="Path 960" d="M584.13,122.613l-1.211-.247-1.083.392-.14.735.909.525,1.273-.081.679-.625Z" transform="translate(-581.696 -122.367)" fill="#5b514c"/>
        <path id="Path_961" data-name="Path 961" d="M581.7,123.184v17.579l.909.878V124.062Z" transform="translate(-581.696 -129.471)" fill="#211515"/>
        <path id="Path_962" data-name="Path 962" d="M583.629,123.507v17.579l-1.273.135V123.641Z" transform="translate(-581.446 -129.051)" fill="#291d1d"/>
        <path id="Path_963" data-name="Path 963" d="M583.958,123.053v17.579l-.679,1.045V124.1Z" transform="translate(-581.097 -129.642)" fill="#38312f"/>
      </g>
    </g>
    <g id="Group_494" data-name="Group 494" transform="translate(557.859 89.687)">
      <path id="Path_964" data-name="Path 964" d="M582.734,100.5l15.658.86,15.213,8.783Z" transform="translate(-548.441 -99.38)" fill="#ee5337"/>
      <path id="Path_965" data-name="Path 965" d="M578.718,99.687l5.536,1.116,15.658.86Z" transform="translate(-549.961 -99.687)" fill="#cbc4b8"/>
      <path id="Path_966" data-name="Path 966" d="M564.879,105.274l24.616-4.471-5.536-1.116Z" transform="translate(-555.202 -99.687)" fill="#ee5337"/>
      <path id="Path_967" data-name="Path 967" d="M557.859,115.983,592.152,100.5l-24.616,4.471Z" transform="translate(-557.859 -99.38)" fill="#cbc4b8"/>
      <path id="Path_968" data-name="Path 968" d="M561.281,128.219,592.152,100.5l-34.293,15.487Z" transform="translate(-557.859 -99.38)" fill="#ee5337"/>
      <path id="Path_969" data-name="Path 969" d="M575.555,137,591.213,100.5l-30.872,27.723Z" transform="translate(-556.92 -99.38)" fill="#cbc4b8"/>
      <path id="Path_970" data-name="Path 970" d="M592.571,138.978,587.034,100.5,571.376,137Z" transform="translate(-552.741 -99.38)" fill="#f0644b"/>
      <path id="Path_971" data-name="Path 971" d="M607.35,133.391l-24.616-32.9,5.536,38.482Z" transform="translate(-548.441 -99.38)" fill="#ede7db"/>
      <path id="Path_972" data-name="Path 972" d="M617.027,122.376,582.734,100.5l24.616,32.9Z" transform="translate(-548.441 -99.38)" fill="#f59887"/>
      <path id="Path_973" data-name="Path 973" d="M613.605,110.139l3.422,12.236L582.734,100.5Z" transform="translate(-548.441 -99.38)" fill="#ede7db"/>
    </g>
  </g>
</svg>
