<svg xmlns="http://www.w3.org/2000/svg" width="22.419" height="18.278" viewBox="0 0 22.419 18.278">
  <g id="Component_2_1" data-name="Component 2 – 1" transform="translate(0.7 0.7)">
    <g id="Component_1_1" data-name="Component 1 – 1">
      <g id="Group_867" data-name="Group 867">
        <path id="Path_1220" data-name="Path 1220" d="M20.71,10.37,20.754,18a1.875,1.875,0,0,1-1.875,1.875h-15A1.875,1.875,0,0,1,2,18V7.688A1.881,1.881,0,0,1,3.875,5.813H6.187a.939.939,0,0,0,.78-.417L8.285,3.417A.939.939,0,0,1,9.065,3h4.623a.939.939,0,0,1,.78.417l1.6,2.4h0" transform="translate(-2 -3)" fill="none" stroke="#fff" stroke-linecap="round" stroke-miterlimit="10" stroke-width="1.4"/>
        <circle id="Ellipse_75" data-name="Ellipse 75" cx="4" cy="4" r="4" transform="translate(5.478 5.384)" fill="none" stroke="#fff" stroke-linecap="round" stroke-miterlimit="10" stroke-width="1.4"/>
      </g>
      <line id="Line_37" data-name="Line 37" x2="4.881" transform="translate(16.138 2.813)" fill="none" stroke="#fff" stroke-linecap="round" stroke-miterlimit="10" stroke-width="1.4"/>
    </g>
    <line id="Line_38" data-name="Line 38" y2="5.04" transform="translate(18.577 0.293)" fill="none" stroke="#fff" stroke-linecap="round" stroke-miterlimit="10" stroke-width="1.4"/>
  </g>
</svg>
