<svg xmlns="http://www.w3.org/2000/svg" xmlns:xlink="http://www.w3.org/1999/xlink" width="136" height="106.839" viewBox="0 0 136 106.839">
  <defs>
    <linearGradient id="linear-gradient" y1="0.5" x2="1" y2="0.5" gradientUnits="objectBoundingBox">
      <stop offset="0.243" stop-color="#c7c9d3"/>
      <stop offset="0.38" stop-color="#c7c9d3"/>
      <stop offset="0.435" stop-color="#c9cbd4"/>
      <stop offset="0.466" stop-color="#d1d1db"/>
      <stop offset="0.472" stop-color="#d4d4dd"/>
      <stop offset="0.732" stop-color="#d4d4dd"/>
      <stop offset="0.889" stop-color="#d4d4dd"/>
    </linearGradient>
    <linearGradient id="linear-gradient-2" y1="0.5" x2="1" y2="0.5" gradientUnits="objectBoundingBox">
      <stop offset="0.111" stop-color="#d4d4dd"/>
      <stop offset="0.268" stop-color="#d4d4dd"/>
      <stop offset="0.528" stop-color="#d4d4dd"/>
      <stop offset="0.534" stop-color="#d1d1db"/>
      <stop offset="0.565" stop-color="#c9cbd4"/>
      <stop offset="0.62" stop-color="#c7c9d3"/>
      <stop offset="0.757" stop-color="#c7c9d3"/>
      <stop offset="0.77" stop-color="#bbbecb"/>
      <stop offset="0.787" stop-color="#b4b7c6"/>
      <stop offset="0.837" stop-color="#b3b6c5"/>
      <stop offset="1" stop-color="#b3b6c5"/>
    </linearGradient>
  </defs>
  <g id="Group_579" data-name="Group 579" transform="translate(-374 -961.563)">
    <g id="Group_333" data-name="Group 333" transform="translate(354.08 479.013)">
      <path id="Path_424" data-name="Path 424" d="M87.39,589.13,21.24,550.938c-1.753-1.012-1.762-2.648-.02-3.654l60.9-35.16a6.994,6.994,0,0,1,6.329.011l66.15,38.192c1.753,1.012,1.762,2.648.02,3.655l-60.9,35.16A7,7,0,0,1,87.39,589.13Z" transform="translate(0 -0.504)" fill="#e3e5ef"/>
      <g id="Group_332" data-name="Group 332" transform="translate(21.321 507.987)">
        <g id="Group_311" data-name="Group 311">
          <g id="Group_310" data-name="Group 310">
            <g id="Group_309" data-name="Group 309">
              <path id="Path_425" data-name="Path 425" d="M154.761,551.19v-2.606l-2.787-.065L88.683,511.979a6.853,6.853,0,0,0-6.2-.011l-58.2,33.6-2.718-.063v2.634h.007a2.159,2.159,0,0,0,1.285,1.842l64.786,37.4a6.849,6.849,0,0,0,6.2.011l59.645-34.436a2.172,2.172,0,0,0,1.267-1.744h.005Z" transform="translate(-21.566 -508.47)" fill="#b7bbc9"/>
              <path id="Path_426" data-name="Path 426" d="M87.646,584.252,22.859,546.847c-1.716-.991-1.726-2.593-.019-3.579l59.644-34.435a6.848,6.848,0,0,1,6.2.011l64.786,37.4c1.717.991,1.726,2.594.02,3.579L93.844,584.263A6.852,6.852,0,0,1,87.646,584.252Z" transform="translate(-21.566 -508.003)" fill="url(#linear-gradient)"/>
              <path id="Path_427" data-name="Path 427" d="M153.123,548.96l-59.75,34.5a5.652,5.652,0,0,1-5.114-.009L23.473,546.042c-1.417-.818-1.424-2.14-.016-2.952l59.749-34.5a5.654,5.654,0,0,1,5.114.009l64.786,37.405C154.523,546.826,154.53,548.147,153.123,548.96Z" transform="translate(-21.691 -507.987)" fill="#f1f1f6"/>
              <path id="Path_428" data-name="Path 428" d="M146.966,544.844,86.244,579.9a1.526,1.526,0,0,1-1.382,0L25.5,545.627c-.382-.221-.385-.579,0-.8L86.218,509.77a1.531,1.531,0,0,1,1.382,0l59.363,34.273A.421.421,0,0,1,146.966,544.844Z" transform="translate(-22.108 -508.228)" fill="#adb7fc"/>
              <path id="Path_429" data-name="Path 429" d="M138.293,574.257l-.468.27a4.628,4.628,0,0,1-4.167.173l-.272-.157c-1.067-.617-.934-1.694.3-2.406l.467-.271a4.635,4.635,0,0,1,4.168-.173l.272.157C139.66,572.467,139.525,573.544,138.293,574.257Z" transform="translate(-38.089 -517.4)" fill="#ececf5"/>
            </g>
          </g>
          <path id="Path_430" data-name="Path 430" d="M133.687,572.871l.467-.27a4.635,4.635,0,0,1,4.168-.173l.272.157a1.41,1.41,0,0,1,.639.69,1.13,1.13,0,0,0-.639-1.425l-.272-.157a4.635,4.635,0,0,0-4.168.173l-.467.271c-.848.489-1.162,1.148-.938,1.714A2.046,2.046,0,0,1,133.687,572.871Z" transform="translate(-38.091 -517.4)" fill="#d4d4dd"/>
        </g>
        <g id="Group_313" data-name="Group 313" transform="translate(64.506 6.543)">
          <path id="Path_431" data-name="Path 431" d="M124.811,534.828a73.959,73.959,0,0,0-10.233-4.688c-4.19-1.342-18.512-11.379-17.145-14.432.732-.422,6.882,3.079,17.2,9.036s13.148,8.37,13.148,8.37Z" transform="translate(-97.341 -515.673)" fill="#eff0f5"/>
          <g id="Group_312" data-name="Group 312" transform="translate(0.003 0.315)">
            <path id="Path_432" data-name="Path 432" d="M130.446,537.427l2.258-1.3s-.088-.073-.264-.21Z" transform="translate(-102.268 -518.998)" fill="#e3e5ef"/>
            <path id="Path_433" data-name="Path 433" d="M114.157,529.633c-3.988-1-16.31-9.929-16.8-13.59-.475,3.342,13.151,12.847,17.221,14.152a73.906,73.906,0,0,1,10.233,4.688l.712-.411A53.916,53.916,0,0,0,114.157,529.633Z" transform="translate(-97.345 -516.043)" fill="#e3e5ef"/>
          </g>
          <path id="Path_434" data-name="Path 434" d="M148.446,548.909c.346.152.866.338,1.468.536,1.776.582,3.771-.57,2.764-1.6a9.055,9.055,0,0,0-.929-.848c-3.861-2.915-19.181-10.881-19.181-10.881h0c-1.159-.685-3.419.256-2.969,1.714h0S143.4,546.679,148.446,548.909Z" transform="translate(-102.13 -518.68)" fill="#e3e5ef"/>
          <path id="Path_435" data-name="Path 435" d="M152.605,547.847s.25,1.326-2.212.93-12.152-6.22-13.82-7.375-6.457-3.886-6.547-4.476,1.053-1.194,1.865-1.112S149.762,545.244,152.605,547.847Z" transform="translate(-102.202 -518.667)" fill="#f6f6fe"/>
        </g>
        <g id="Group_328" data-name="Group 328" transform="translate(30.135 4.942)">
          <g id="Group_318" data-name="Group 318" transform="translate(0 11.572)">
            <path id="Path_436" data-name="Path 436" d="M109.251,536.85c-11.442-6.84-30.259-7.031-42.03-.425s-12.039,17.5-.6,24.344,30.259,7.03,42.03.425S120.692,543.689,109.251,536.85Z" transform="translate(-57.151 -528.011)" fill="#e3e5ef"/>
            <g id="Group_317" data-name="Group 317">
              <path id="Path_437" data-name="Path 437" d="M103.929,528.383a44.67,44.67,0,0,1,4.384,1.081l1.737.568c.718.272,1.677.635,2.386.931l1.541.71c.676.354,1.577.832,2.237,1.214l1.336.85c.573.415,1.334.972,1.886,1.414l1.066.948c.441.451,1.024,1.057,1.438,1.534l.8,1.042c.3.475.706,1.109.977,1.6l.518,1.125c.167.484.391,1.13.522,1.626l.218,1.185c.034.483.085,1.127.083,1.611l-.1,1.222c-.093.47-.209,1.1-.336,1.562l-.433,1.229c-.215.449-.492,1.052-.735,1.486l-.779,1.207c-.331.419-.762.986-1.114,1.386l-1.133,1.156c-.441.381-1.019.9-1.476,1.26l-1.5,1.076c-.545.335-1.264.8-1.822,1.113.145-.081.107-.27.038-.432l1.091-.667a15.066,15.066,0,0,0,3.179-2.636,2.208,2.208,0,0,0-.361.222c7.881-6.766,6.778-16.044-3.45-22.158a40.114,40.114,0,0,0-15.314-4.969l1.949.29,1.165.212Z" transform="translate(-63.487 -527.459)" fill="#b8c1ff"/>
              <g id="Group_314" data-name="Group 314" transform="translate(0 0.384)">
                <path id="Path_438" data-name="Path 438" d="M110.741,530.107c-.224-.074-.447-.149-.673-.22Z" transform="translate(-64.863 -528.142)" fill="#d6dbff"/>
                <path id="Path_439" data-name="Path 439" d="M106.12,528.831q-.5-.115-1-.219C105.511,528.7,105.837,528.768,106.12,528.831Z" transform="translate(-64.128 -527.952)" fill="#d6dbff"/>
                <path id="Path_440" data-name="Path 440" d="M103.394,528.275l-.173-.032Z" transform="translate(-63.845 -527.897)" fill="#d6dbff"/>
                <path id="Path_441" data-name="Path 441" d="M116.983,532.708c-.076-.039-.149-.08-.226-.119Z" transform="translate(-65.858 -528.544)" fill="#d6dbff"/>
                <path id="Path_442" data-name="Path 442" d="M112.985,530.912c-.242-.1-.484-.189-.729-.279C112.493,530.722,112.737,530.816,112.985,530.912Z" transform="translate(-65.189 -528.253)" fill="#d6dbff"/>
                <path id="Path_443" data-name="Path 443" d="M100.815,527.881q1.03.133,2.048.308l-.1-.018Z" transform="translate(-63.487 -527.844)" fill="#d6dbff"/>
                <path id="Path_444" data-name="Path 444" d="M114.886,531.7l-.148-.068Z" transform="translate(-65.558 -528.401)" fill="#d6dbff"/>
                <path id="Path_445" data-name="Path 445" d="M113.112,530.961c.466.183.931.367,1.384.567l-.231-.106C113.922,531.278,113.518,531.118,113.112,530.961Z" transform="translate(-65.316 -528.302)" fill="#d6dbff"/>
                <path id="Path_446" data-name="Path 446" d="M118.452,544.935l-.218-1.186c-.131-.495-.355-1.141-.522-1.625L117.195,541c-.272-.494-.674-1.128-.977-1.6l-.8-1.042c-.414-.477-1-1.083-1.438-1.534l-1.066-.948c-.552-.442-1.313-1-1.885-1.414l-1.337-.85c-.469-.272-1.058-.59-1.6-.879.517.27,1.026.548,1.517.842,11.732,7.014,11.459,18.19-.612,24.964a35.209,35.209,0,0,1-6.769,2.87c2.395-.72-28.943,1.111-36.33-3.306-11.358-6.789-11.463-17.479-.51-24.3-.376.234-.752.473-1.072.678l-1.211.884c-.518.42-1.186,1.009-1.682,1.455l-.94.974c-.387.449-.871,1.076-1.23,1.548l-.673,1.059c-.257.466-.557,1.112-.781,1.6l-.393,1.131c-.129.475-.249,1.121-.342,1.6l-.1,1.184c0,.475.047,1.107.079,1.58l.221,1.213c.118.465.331,1.07.482,1.526l.553,1.214c.238.446.6,1.014.868,1.445l.9,1.186c.352.419.864.941,1.238,1.34l1.254,1.13c.462.382,1.113.85,1.592,1.211L65.77,558.8c.558.331,1.326.731,1.9,1.043l1.88.879c.611.263,1.444.572,2.063.816l2.067.685c.652.2,1.532.419,2.189.6l2.207.485c.68.133,1.594.272,2.277.387l2.3.282c.7.07,1.63.125,2.329.179l2.34.076c.7.007,1.641-.02,2.344-.028L92,564.072c.7-.055,1.626-.166,2.323-.237l2.281-.34c.683-.117,1.586-.313,2.265-.448l2.18-.547c.656-.183,1.52-.466,2.171-.667l2.028-.75a33.387,33.387,0,0,0,3.866-1.843c.558-.315,1.277-.777,1.822-1.113l1.5-1.076c.457-.36,1.035-.879,1.476-1.26l1.133-1.156c.352-.4.783-.967,1.114-1.386l.779-1.207c.243-.434.519-1.038.735-1.486l.433-1.229c.127-.462.243-1.092.336-1.562l.1-1.222C118.537,546.062,118.486,545.417,118.452,544.935Z" transform="translate(-56.966 -528.565)" fill="#b7bbc9"/>
                <path id="Path_447" data-name="Path 447" d="M118.317,546.014l-.217-1.179c-.13-.492-.352-1.136-.518-1.617l-.287-.621c-.066-.037-.134-.072-.2-.112,2.689,5.931-.059,12.5-8.186,17.057a35,35,0,0,1-6.733,2.854c2.382-.716-28.79,1.1-36.137-3.288-7.024-4.2-9.719-9.9-8.136-15.239-.085.062-.172.121-.256.184l-.055.16c-.128.472-.248,1.115-.341,1.6l-.094,1.178c0,.472.047,1.1.078,1.571l.22,1.206c.117.463.329,1.065.479,1.518l.55,1.207c.237.444.6,1.009.864,1.437l.893,1.18c.352.416.86.936,1.232,1.333l1.246,1.124c.461.38,1.108.845,1.584,1.2l1.609,1.039c.555.33,1.32.728,1.886,1.038l1.869.873c.608.262,1.436.57,2.052.812l2.056.682c.649.2,1.525.417,2.178.6l2.2.484c.676.131,1.585.269,2.265.385l2.286.28c.694.069,1.622.124,2.316.178l2.328.075c.7.008,1.633-.02,2.332-.028L92,565.05c.695-.055,1.617-.164,2.311-.235l2.27-.338c.678-.117,1.577-.312,2.253-.446l2.167-.542c.653-.182,1.512-.464,2.16-.664l2.018-.746a33.217,33.217,0,0,0,3.844-1.833c.555-.314,1.27-.774,1.812-1.108l1.487-1.07c.455-.358,1.03-.875,1.468-1.253l1.127-1.15c.351-.4.78-.962,1.108-1.377l.775-1.2c.242-.432.517-1.033.731-1.479l.431-1.222c.126-.46.242-1.086.335-1.554l.1-1.215C118.4,547.136,118.351,546.495,118.317,546.014Z" transform="translate(-56.995 -530.016)" fill="url(#linear-gradient-2)"/>
                <path id="Path_448" data-name="Path 448" d="M103.424,528.28c.486.085.966.183,1.446.283l-.553-.12Z" transform="translate(-63.875 -527.903)" fill="#d6dbff"/>
                <path id="Path_449" data-name="Path 449" d="M114.912,531.707q.8.359,1.571.751l-.409-.215Z" transform="translate(-65.584 -528.413)" fill="#d6dbff"/>
                <path id="Path_450" data-name="Path 450" d="M106.294,528.869c1.093.252,2.166.539,3.213.867l-.379-.124C107.894,529.248,107.424,529.121,106.294,528.869Z" transform="translate(-64.302 -527.99)" fill="#d6dbff"/>
                <path id="Path_451" data-name="Path 451" d="M110.859,530.145q.6.2,1.189.415l-.5-.192Z" transform="translate(-64.981 -528.18)" fill="#d6dbff"/>
                <path id="Path_452" data-name="Path 452" d="M73.545,530.683c.269-.1.54-.2.8-.3C74.075,530.481,73.811,530.583,73.545,530.683Z" transform="translate(-59.432 -528.216)" fill="#d6dbff"/>
                <path id="Path_453" data-name="Path 453" d="M77.222,529.459l-.432.133c.345-.1.693-.2,1.043-.292Z" transform="translate(-59.914 -528.055)" fill="#d6dbff"/>
                <path id="Path_454" data-name="Path 454" d="M75.851,529.89l.8-.247C76.381,529.723,76.116,529.806,75.851,529.89Z" transform="translate(-59.775 -528.106)" fill="#d6dbff"/>
                <path id="Path_455" data-name="Path 455" d="M75.059,530.114c-.179.062-.374.132-.574.2.383-.134.772-.261,1.163-.386Z" transform="translate(-59.571 -528.149)" fill="#d6dbff"/>
                <path id="Path_456" data-name="Path 456" d="M66.857,533.979l.061-.037Z" transform="translate(-58.437 -528.745)" fill="#d6dbff"/>
                <path id="Path_457" data-name="Path 457" d="M72.091,531.3l.016-.008Z" transform="translate(-59.215 -528.351)" fill="#d6dbff"/>
                <path id="Path_458" data-name="Path 458" d="M72.261,531.144l-.151.066c.4-.167.812-.32,1.222-.475C72.955,530.877,72.583,531.019,72.261,531.144Z" transform="translate(-59.218 -528.268)" fill="#d6dbff"/>
                <path id="Path_459" data-name="Path 459" d="M80.09,528.735c-.27.062-.573.137-.883.214.386-.093.772-.185,1.162-.269Z" transform="translate(-60.274 -527.962)" fill="#d6dbff"/>
                <path id="Path_460" data-name="Path 460" d="M82.874,528.21l1-.155C83.537,528.105,83.2,528.154,82.874,528.21Z" transform="translate(-60.819 -527.869)" fill="#d6dbff"/>
                <path id="Path_461" data-name="Path 461" d="M84.045,528.023c.43-.064.858-.132,1.292-.186C84.948,527.887,84.5,527.954,84.045,528.023Z" transform="translate(-60.993 -527.837)" fill="#d6dbff"/>
                <path id="Path_462" data-name="Path 462" d="M71.323,531.3l-1.435.634-.5.24-1.479.779c-.3.174-.64.381-.982.594q.515-.319,1.06-.626A32.42,32.42,0,0,1,71.323,531.3Z" transform="translate(-58.448 -528.352)" fill="#d6dbff"/>
                <path id="Path_463" data-name="Path 463" d="M78.015,529.255c.329-.085.676-.174,1.015-.259Q78.519,529.12,78.015,529.255Z" transform="translate(-60.096 -528.009)" fill="#d6dbff"/>
                <path id="Path_464" data-name="Path 464" d="M80.572,528.648l.93-.185C81.192,528.523,80.88,528.581,80.572,528.648Z" transform="translate(-60.477 -527.93)" fill="#d6dbff"/>
                <path id="Path_465" data-name="Path 465" d="M82.391,528.285l-.726.145c.342-.066.684-.133,1.029-.192Z" transform="translate(-60.639 -527.896)" fill="#d6dbff"/>
              </g>
              <path id="Path_466" data-name="Path 466" d="M109.661,532.776c-11.732-7.014-31.029-7.209-43.1-.435S54.216,550.29,65.949,557.3s31.029,7.209,43.1.436S121.393,539.79,109.661,532.776Z" transform="translate(-57.019 -527.386)" fill="#f5f5fa"/>
              <g id="Group_315" data-name="Group 315" transform="translate(8.052 5.517)">
                <ellipse id="Ellipse_22" data-name="Ellipse 22" cx="13.144" cy="22.692" rx="13.144" ry="22.692" transform="translate(0 26.287) rotate(-89.838)" fill="#ececf5"/>
              </g>
              <g id="Group_316" data-name="Group 316" transform="translate(9.87 7.323)">
                <ellipse id="Ellipse_23" data-name="Ellipse 23" cx="12.092" cy="20.876" rx="12.092" ry="20.876" transform="matrix(0.003, -1, 1, 0.003, 0, 24.184)" fill="#f1f1f6"/>
              </g>
            </g>
          </g>
          <g id="Group_327" data-name="Group 327" transform="translate(10.247)">
            <g id="Group_319" data-name="Group 319" transform="translate(0 18.593)">
              <ellipse id="Ellipse_24" data-name="Ellipse 24" cx="11.874" cy="20.5" rx="11.874" ry="20.5" transform="translate(0 23.749) rotate(-89.838)" fill="#e3e5ef"/>
            </g>
            <g id="Group_320" data-name="Group 320" transform="translate(1.165 17.878)">
              <ellipse id="Ellipse_25" data-name="Ellipse 25" cx="11.201" cy="19.337" rx="11.201" ry="19.337" transform="matrix(0.003, -1, 1, 0.003, 0, 22.401)" fill="#f7a75c"/>
            </g>
            <path id="Path_467" data-name="Path 467" d="M110.061,541.147h-.5a11.928,11.928,0,0,0-5.318-5.728c-7.891-4.717-20.871-4.848-28.989-.293-3.021,1.7-4.943,3.8-5.758,6.021h-.444v2.2c-.007.18-.007.359,0,.538V544h0c.152,2.859,2.075,5.7,5.789,7.919,7.891,4.718,20.87,4.849,28.988.293,4.1-2.3,6.173-5.357,6.208-8.426h.021Z" transform="translate(-69.01 -516.47)" fill="#ffbb5b"/>
            <g id="Group_321" data-name="Group 321" transform="translate(0 13.119)">
              <ellipse id="Ellipse_26" data-name="Ellipse 26" cx="11.874" cy="20.5" rx="11.874" ry="20.5" transform="translate(0 23.749) rotate(-89.838)" fill="#ffc97c"/>
            </g>
            <g id="Group_322" data-name="Group 322" transform="translate(1.549 9.263)">
              <path id="Path_468" data-name="Path 468" d="M108.792,536.4l-1.663-.013c-3.149-4.085-10.428-6.829-18.588-6.543-7.162.25-13.128,2.764-15.955,6.264l-1.758-.014v4.221c0,.065,0,.129,0,.192v.014h0c.006.171.017.342.037.515.7,6.042,9.747,10.644,20.208,10.277,9.939-.347,17.574-5.056,17.711-10.707h.007Z" transform="translate(-70.823 -525.44)" fill="#b38254"/>
              <path id="Path_469" data-name="Path 469" d="M91.074,546.575c-10.461.366-19.509-4.235-20.208-10.277s7.215-11.237,17.676-11.6,19.509,4.235,20.208,10.277S101.535,546.209,91.074,546.575Z" transform="translate(-70.823 -524.674)" fill="#ba8958"/>
              <ellipse id="Ellipse_27" data-name="Ellipse 27" cx="10.645" cy="18.438" rx="10.645" ry="18.438" transform="translate(0.489 21.38) rotate(-89.689)" fill="#d39e69"/>
            </g>
            <g id="Group_323" data-name="Group 323" transform="translate(11.513 20.989)">
              <path id="Path_470" data-name="Path 470" d="M97.674,543.128l-.663-.006c-1.256-1.629-4.16-2.723-7.415-2.61-2.856.1-5.236,1.1-6.364,2.5l-.7-.006v1.108c0,.026,0,.051,0,.077v.006h0c0,.068.007.137.015.205.278,2.411,3.888,4.246,8.061,4.1,3.965-.138,7.01-2.017,7.065-4.271h0Z" transform="translate(-82.528 -538.754)" fill="#f55151"/>
              <path id="Path_471" data-name="Path 471" d="M90.606,547.186c-4.173.146-7.782-1.689-8.061-4.1s2.877-4.482,7.05-4.628,7.782,1.69,8.062,4.1S94.779,547.04,90.606,547.186Z" transform="translate(-82.528 -538.449)" fill="#f55151"/>
              <path id="Path_472" data-name="Path 472" d="M90.606,547c-4.086.143-7.621-1.654-7.894-4.015s2.818-4.39,6.9-4.533,7.621,1.655,7.895,4.015S94.693,546.861,90.606,547Z" transform="translate(-82.553 -538.449)" fill="#ff7a7a"/>
            </g>
            <g id="Group_324" data-name="Group 324" transform="translate(26.659 17.356)">
              <path id="Path_473" data-name="Path 473" d="M112.609,538.015l-.538-.005c-1.019-1.322-3.375-2.21-6.016-2.117a7.062,7.062,0,0,0-5.165,2.027l-.569,0v.9c0,.021,0,.042,0,.063v0h0c0,.055.006.111.012.167.226,1.955,3.155,3.445,6.54,3.326,3.218-.112,5.688-1.636,5.732-3.466h0Z" transform="translate(-100.32 -534.434)" fill="#8acf8f"/>
              <path id="Path_474" data-name="Path 474" d="M106.874,541.308c-3.386.118-6.314-1.371-6.54-3.327s2.335-3.637,5.721-3.755,6.314,1.371,6.54,3.327S110.26,541.189,106.874,541.308Z" transform="translate(-100.32 -534.186)" fill="#8acf8f"/>
              <ellipse id="Ellipse_28" data-name="Ellipse 28" cx="3.474" cy="6.017" rx="3.474" ry="6.017" transform="translate(0.097 6.948) rotate(-89.689)" fill="#7cc281"/>
            </g>
            <g id="Group_325" data-name="Group 325" transform="translate(1.196 16.611)">
              <path id="Path_475" data-name="Path 475" d="M82.7,537.1l-.538-.005c-1.019-1.322-3.375-2.21-6.016-2.117a7.06,7.06,0,0,0-5.164,2.027l-.57,0v.9c0,.021,0,.042,0,.063v0h0c0,.055.005.111.012.167.226,1.955,3.155,3.445,6.54,3.326,3.217-.112,5.688-1.636,5.732-3.465h0Z" transform="translate(-70.409 -533.553)" fill="#8acf8f"/>
              <path id="Path_476" data-name="Path 476" d="M76.963,540.395c-3.386.118-6.314-1.371-6.54-3.327s2.335-3.637,5.721-3.755,6.314,1.371,6.54,3.327S80.348,540.276,76.963,540.395Z" transform="translate(-70.409 -533.306)" fill="#8acf8f"/>
              <path id="Path_477" data-name="Path 477" d="M76.963,540.247c-3.317.116-6.184-1.342-6.406-3.258s2.287-3.562,5.6-3.677,6.184,1.342,6.4,3.258S80.279,540.131,76.963,540.247Z" transform="translate(-70.429 -533.305)" fill="#7cc281"/>
            </g>
            <path id="Path_478" data-name="Path 478" d="M81.91,530.429s-8.36,5.215-9.119,11.7c-.01.084.008.637,0,.722,7.44-.767,29.118,2.537,29.118,2.537s4.418-7.193,7.4-9.948S81.91,530.429,81.91,530.429Z" transform="translate(-69.566 -516.267)" fill="#facb55"/>
            <path id="Path_479" data-name="Path 479" d="M81.911,529.58S73.357,535.412,72.792,542c7.44-.768,29.118,2.536,29.118,2.536s4.418-7.193,7.4-9.948S81.911,529.58,81.911,529.58Z" transform="translate(-69.567 -516.141)" fill="#fff887"/>
            <path id="Path_480" data-name="Path 480" d="M89.658,515.812c-21.2,0-19.831,15.228-19.831,15.228h.021c-.208,3.035,1.646,6.116,5.589,8.474,7.633,4.563,20.187,4.69,28.04.283,4.016-2.254,6.019-5.257,6-8.262h0S110.856,515.812,89.658,515.812Z" transform="translate(-69.123 -514.093)" fill="#cfaf80"/>
            <path id="Path_481" data-name="Path 481" d="M89.541,513.793c-21.914,0-20.5,15.743-20.5,15.743h.021c-.215,3.138,1.7,6.322,5.778,8.76,7.891,4.718,20.87,4.849,28.988.293,4.152-2.329,6.223-5.434,6.207-8.542h0S111.455,513.793,89.541,513.793Z" transform="translate(-69.006 -513.793)" fill="#ffbb5b"/>
            <path id="Path_482" data-name="Path 482" d="M110.039,531.754h0c.016,3.108-2.055,6.212-6.207,8.542-8.119,4.555-21.1,4.424-28.988-.293-4.078-2.438-5.993-5.623-5.778-8.76H69.04s-.005-.057-.009-.155a8.873,8.873,0,0,0,.009,1.022h.021c-.215,3.138,1.7,6.322,5.778,8.76,7.891,4.718,20.87,4.849,28.988.293,4.152-2.329,6.223-5.434,6.207-8.542h0a9.517,9.517,0,0,0,.01-1.038C110.044,531.692,110.039,531.754,110.039,531.754Z" transform="translate(-69.006 -516.365)" fill="#f7a75c"/>
            <g id="Group_326" data-name="Group 326" transform="translate(2.258)">
              <path id="Path_483" data-name="Path 483" d="M102.67,531.994c-7.238,4.061-18.808,3.945-25.844-.261s-6.871-10.907.367-14.969,18.809-3.945,25.844.261S109.908,527.933,102.67,531.994Z" transform="translate(-71.655 -513.793)" fill="#ffc97c"/>
            </g>
            <path id="Path_484" data-name="Path 484" d="M86.614,532.11c-.287.73-1.5,1.252-1.5,1.252a3.215,3.215,0,0,1-.246-1.936c.286-.73.8-.891,1.281-.7S86.9,531.381,86.614,532.11Z" transform="translate(-71.35 -516.3)" fill="#ffeebd"/>
            <path id="Path_485" data-name="Path 485" d="M95.7,535.545c.763.182,1.447,1.309,1.447,1.309a3.222,3.222,0,0,1-1.883.512c-.763-.183-.993-.669-.873-1.172S94.934,535.362,95.7,535.545Z" transform="translate(-72.774 -517.02)" fill="#ffeebd"/>
            <path id="Path_486" data-name="Path 486" d="M86.946,525.481a3.223,3.223,0,0,1-.475-1.893,3.221,3.221,0,0,1,1.85.621c.533.576.454,1.108.074,1.46S87.479,526.057,86.946,525.481Z" transform="translate(-71.601 -515.249)" fill="#ffeebd"/>
            <path id="Path_487" data-name="Path 487" d="M106.278,525.034a3.215,3.215,0,0,1,1.877-.535,3.221,3.221,0,0,1-.563,1.869c-.558.551-1.093.489-1.456.12S105.72,525.584,106.278,525.034Z" transform="translate(-74.485 -515.385)" fill="#ffeebd"/>
            <path id="Path_488" data-name="Path 488" d="M83.044,517.039a3.621,3.621,0,0,1-1.767-.526,3.617,3.617,0,0,1,1.643-.835c.781-.071,1.145.2,1.179.579S83.825,516.968,83.044,517.039Z" transform="translate(-70.829 -514.071)" fill="#ffeebd"/>
            <path id="Path_489" data-name="Path 489" d="M72.36,522.868a3.621,3.621,0,0,1,1.615-.89,3.616,3.616,0,0,1-.558,1.757c-.5.606-.948.672-1.24.433S71.863,523.474,72.36,522.868Z" transform="translate(-69.444 -515.01)" fill="#ffeebd"/>
            <path id="Path_490" data-name="Path 490" d="M103.84,517.493c.773.132,1.531,1.211,1.531,1.211a3.216,3.216,0,0,1-1.845.635c-.774-.132-1.036-.6-.948-1.112S103.067,517.361,103.84,517.493Z" transform="translate(-73.994 -514.339)" fill="#ffeebd"/>
            <path id="Path_491" data-name="Path 491" d="M108.556,532.835a3.219,3.219,0,0,1-1.808.735,3.221,3.221,0,0,1,.357-1.919c.5-.607,1.034-.6,1.435-.277S109.051,532.228,108.556,532.835Z" transform="translate(-74.614 -516.375)" fill="#ffeebd"/>
            <path id="Path_492" data-name="Path 492" d="M90.244,515.081a3.22,3.22,0,0,1,1.88.52s-.689,1.124-1.452,1.3-1.188-.152-1.306-.656S89.48,515.26,90.244,515.081Z" transform="translate(-72.027 -513.98)" fill="#ffeebd"/>
            <path id="Path_493" data-name="Path 493" d="M95.16,522.623a3.216,3.216,0,0,1-1.939-.216s.5-1.218,1.228-1.516,1.2-.037,1.394.441S95.886,522.326,95.16,522.623Z" transform="translate(-72.605 -514.83)" fill="#ffeebd"/>
            <path id="Path_494" data-name="Path 494" d="M99.8,515.6a4.349,4.349,0,0,1-1.746.788s-.449-.8-.062-1.274a1.368,1.368,0,0,1,1.456-.433C99.946,514.82,100.185,515.131,99.8,515.6Z" transform="translate(-73.291 -513.917)" fill="#ffeebd"/>
            <path id="Path_495" data-name="Path 495" d="M112.012,521.14a3.463,3.463,0,0,1,.844,1.667,3.465,3.465,0,0,1-1.8-.512c-.605-.5-.652-.972-.389-1.291S111.407,520.641,112.012,521.14Z" transform="translate(-75.177 -514.829)" fill="#ffeebd"/>
            <path id="Path_496" data-name="Path 496" d="M76.533,531.162a3.219,3.219,0,0,1-1.927-.3s.556-1.2,1.294-1.461,1.2.015,1.372.5S77.271,530.9,76.533,531.162Z" transform="translate(-69.836 -516.099)" fill="#ffeebd"/>
            <path id="Path_497" data-name="Path 497" d="M79.863,523.115a3.219,3.219,0,0,1-1.936-.249s.524-1.21,1.254-1.495,1.2-.018,1.386.464S80.593,522.83,79.863,523.115Z" transform="translate(-70.33 -514.902)" fill="#ffeebd"/>
            <path id="Path_498" data-name="Path 498" d="M96.849,527.762c.78.078,1.61,1.1,1.61,1.1a3.216,3.216,0,0,1-1.8.761c-.781-.078-1.074-.529-1.023-1.044S96.068,527.684,96.849,527.762Z" transform="translate(-72.964 -515.869)" fill="#ffeebd"/>
          </g>
        </g>
        <g id="Group_331" data-name="Group 331" transform="translate(11.587 35.273)">
          <g id="Group_330" data-name="Group 330">
            <path id="Path_499" data-name="Path 499" d="M68.329,567.758s-11.6-5.21-14.178-9.06c-.891-1.329-1.989-5.145-3.363-6.233-3.743-2.962-9.989-3.042-9.989-3.042l-.827.139.152.323s6.119.1,9.862,3.062a2.778,2.778,0,0,1,.416.43l-.006.006s.4,1.144-1,.313l-.014-.007a2.115,2.115,0,0,0-.273-.278c-3.743-2.962-9.874-2.986-9.874-2.986l-.919.136.3.277s6.131.024,9.874,2.986a2.486,2.486,0,0,1,.521.615c.026.134.235,1.351-.839.695l-.009,0a2.428,2.428,0,0,0-.5-.575c-3.743-2.962-9.769-3-9.769-3l-1,.132.38.281s6.025.035,9.769,3a2.728,2.728,0,0,1,.661.849c.1.235.116.6-1.122.068-.014-.006-.02-.006-.033-.012a2.251,2.251,0,0,1-.408-.244c-3.743-2.963-9.67-2.995-9.67-2.995l-1.292.022.051.425s5.927.031,9.67,2.994a2.573,2.573,0,0,1,.551.6A9.792,9.792,0,0,0,51.19,560.9a11.7,11.7,0,0,1,2.212.629c2.276,1.113,11.959,7.947,11.959,7.947l1.685-.856c.531.3.84.466.84.466Z" transform="translate(-35.178 -549.422)" fill="#eff0f5"/>
            <g id="Group_329" data-name="Group 329" transform="translate(0 0.117)">
              <path id="Path_500" data-name="Path 500" d="M49.035,554.015a2.486,2.486,0,0,1,.521.615c0,.026.014.094.023.175a1.829,1.829,0,0,0-.023-.484,2.487,2.487,0,0,0-.521-.615c-3.743-2.962-9.874-2.986-9.874-2.986l-.011-.01-.287.043.3.277S45.292,551.052,49.035,554.015Z" transform="translate(-35.726 -549.73)" fill="#e3e5ef"/>
              <path id="Path_501" data-name="Path 501" d="M50.824,552.967a2.778,2.778,0,0,1,.416.43l-.006.006s.016.055.031.123a.893.893,0,0,0-.031-.432l.006-.006a2.706,2.706,0,0,0-.416-.43c-3.743-2.963-9.862-3.062-9.862-3.062l-.017-.037-.135.022.152.323S47.081,550,50.824,552.967Z" transform="translate(-36.016 -549.559)" fill="#e3e5ef"/>
              <path id="Path_502" data-name="Path 502" d="M47.342,555.354a2.705,2.705,0,0,1,.647.826c.077-.067.057-.186.014-.287a2.733,2.733,0,0,0-.661-.848c-3.744-2.962-9.769-3-9.769-3l-.025-.018-.355.047.38.281S43.6,552.392,47.342,555.354Z" transform="translate(-35.478 -549.926)" fill="#e3e5ef"/>
              <path id="Path_503" data-name="Path 503" d="M67.885,569.337s-.309-.168-.84-.466l-1.685.857s-9.682-6.834-11.959-7.947a11.641,11.641,0,0,0-2.212-.629,9.792,9.792,0,0,1-5.739-4.221,2.573,2.573,0,0,0-.551-.6c-3.743-2.963-9.67-2.994-9.67-2.994l-.014-.116h-.037l.051.425s5.927.031,9.67,2.994a2.573,2.573,0,0,1,.551.6,9.792,9.792,0,0,0,5.739,4.221,11.7,11.7,0,0,1,2.212.629c2.276,1.113,11.959,7.947,11.959,7.947l1.685-.856c.531.3.84.466.84.466l.444-1.324-.09-.041Z" transform="translate(-35.178 -550.103)" fill="#e3e5ef"/>
            </g>
            <path id="Path_504" data-name="Path 504" d="M92.77,581.806a9.078,9.078,0,0,1,.929.849c1.007,1.025-.988,2.177-2.764,1.6-.6-.2-1.123-.383-1.468-.536C84.418,581.485,70.62,572.64,70.62,572.64h0c-.507-1.1,1.718-2.435,2.969-1.714h0S88.91,578.892,92.77,581.806Z" transform="translate(-40.438 -552.59)" fill="#e3e5ef"/>
          </g>
          <path id="Path_505" data-name="Path 505" d="M93.274,582.767s.25,1.327-2.212.93-12.152-6.22-13.82-7.375-6.457-3.886-6.547-4.476,1.053-1.194,1.865-1.111S90.431,580.163,93.274,582.767Z" transform="translate(-40.46 -552.591)" fill="#f6f6fe"/>
          <path id="Path_506" data-name="Path 506" d="M52.767,553.761s.145,1.058-.6,1.25-.682.866-1.206,1.13-.838,1.2-1.872.89-1.106.457-.89.722a9.822,9.822,0,0,0,1.863,1.767c.722.457.946.469.9-.157s2.505-2.815,2.914-2.73.7.254.457-.468S52.767,552.848,52.767,553.761Z" transform="translate(-37.1 -550.039)" fill="#f5f5fa"/>
        </g>
      </g>
    </g>
    <g id="Group_450" data-name="Group 450" transform="translate(-167.49 931.354)">
      <path id="Path_829" data-name="Path 829" d="M612.536,104.792a6.424,6.424,0,0,1-5.812-.01c-1.61-.929-1.618-2.432-.018-3.356a6.424,6.424,0,0,1,5.813.011C614.128,102.365,614.136,103.868,612.536,104.792Z" transform="translate(-6.084 -35.698)" fill="#ff8154" opacity="0.39"/>
      <g id="Group_449" data-name="Group 449" transform="translate(593.49 30.209)">
        <g id="Group_448" data-name="Group 448">
          <path id="Path_830" data-name="Path 830" d="M607.171,30.528l0,.007c-1.45-.6-3.337-.392-5.406.8-4.568,2.638-8.27,9.022-8.27,14.264,0,7.133,8.27,15.247,8.27,15.247l2.46,1.216,5.458-30.292Z" transform="translate(-593.49 -30.209)" fill="#ffcc54"/>
          <g id="Group_447" data-name="Group 447" transform="translate(2.46 1.209)">
            <path id="Path_831" data-name="Path 831" d="M606.742,33.794c4.568-2.637,8.27-.526,8.27,4.715,0,7.133-8.27,24.8-8.27,24.8s-8.27-8.115-8.27-15.248C598.472,42.817,602.174,36.431,606.742,33.794Z" transform="translate(-598.472 -32.658)" fill="#fff887"/>
            <ellipse id="Ellipse_32" data-name="Ellipse 32" cx="6.754" cy="3.899" rx="6.754" ry="3.899" transform="translate(2.863 15) rotate(-59.69)" fill="#ee5337"/>
          </g>
        </g>
        <path id="Path_832" data-name="Path 832" d="M599.127,48.335c0-5.121,3.616-11.358,8.078-13.933,4.414-2.549,7.722-.679,7.8,4.321,0-.07.007-.145.007-.213,0-5.242-3.7-7.352-8.27-4.715s-8.27,9.023-8.27,14.264c0,7.133,8.27,15.248,8.27,15.248h0S599.127,55.3,599.127,48.335Z" transform="translate(-596.012 -31.448)" fill="#ffe254"/>
      </g>
    </g>
  </g>
</svg>
