<svg xmlns="http://www.w3.org/2000/svg" width="62" height="61" viewBox="0 0 62 61">
  <g id="Group_614" data-name="Group 614" transform="translate(-1546 -5144)">
    <ellipse id="Ellipse_19" data-name="Ellipse 19" cx="31" cy="30.5" rx="31" ry="30.5" transform="translate(1546 5144)" fill="#fff"/>
    <path id="Path_179" data-name="Path 179" d="M3.269,8.569A11.918,11.918,0,0,1,13.923,2,11.448,11.448,0,0,1,21.9,5.106L18.481,8.525a6.443,6.443,0,0,0-4.558-1.784,7.162,7.162,0,0,0-6.671,9.446A7.191,7.191,0,0,0,17.96,19.965a5.484,5.484,0,0,0,2.38-3.6H13.923V11.755H25.152a13.709,13.709,0,0,1,.217,2.438,11.621,11.621,0,0,1-3.555,8.763,11.377,11.377,0,0,1-7.89,2.889A11.924,11.924,0,0,1,3.269,8.569Z" transform="translate(1563.447 5161.012)" fill="#d14127"/>
  </g>
</svg>
