<svg xmlns="http://www.w3.org/2000/svg" width="45.651" height="45.65" viewBox="0 0 45.651 45.65">
  <g id="Home_delivery" data-name="Home delivery" transform="translate(-226.963 -613.96)" opacity="0.8">
    <g id="Group_516" data-name="Group 516">
      <path id="Path_979" data-name="Path 979" d="M271.485,632.125a.762.762,0,0,0,1.129-.666v-4.565a.763.763,0,0,0-.394-.666l-8.737-4.819v-6.688a.76.76,0,0,0-.76-.761h-3.8a.761.761,0,0,0-.761.761v3.751l-8.007-4.413a.758.758,0,0,0-.736,0l-22.058,12.173a.761.761,0,0,0-.393.662v4.565a.76.76,0,0,0,1.128.666l3.437-1.9v23.295h-3.8a.76.76,0,1,0,0,1.521h9.891v2.283a2.282,2.282,0,0,0,2.282,2.282h19.782a2.283,2.283,0,0,0,2.283-2.282v-2.283h9.891a.76.76,0,1,0,0-1.521h-3.8V630.23Zm-11.806-16.644h2.283v5.089l-2.283-1.259Zm-31.194,11.862,21.3-11.753,21.31,11.753v2.828L250.15,618.62a.764.764,0,0,0-.736,0l-20.929,11.55Zm31.955,29.985a.761.761,0,0,1-.761.761H239.9a.761.761,0,0,1-.761-.761V637.546a.761.761,0,0,1,.761-.761h6.087v8.369a.76.76,0,0,0,.758.764.748.748,0,0,0,.341-.079l2.731-1.353,2.674,1.351a.76.76,0,0,0,1.1-.683v-8.369h6.087a.761.761,0,0,1,.761.761Zm-12.934-20.543h4.565v7.133l-1.911-.965a.76.76,0,0,0-.68,0l-1.974.976Zm19.021,16.739h-4.565V637.546a2.283,2.283,0,0,0-2.283-2.283H239.9a2.283,2.283,0,0,0-2.282,2.283v15.978H233.05V629.389l16.732-9.234,16.745,9.235Z" fill="#515151"/>
      <path id="Path_980" data-name="Path 980" d="M245.984,627.655a3.8,3.8,0,1,0,3.8-3.8A3.8,3.8,0,0,0,245.984,627.655Zm3.8-2.283a2.283,2.283,0,1,1-2.282,2.283A2.283,2.283,0,0,1,249.788,625.372Z" fill="#515151"/>
    </g>
  </g>
</svg>
