<svg xmlns="http://www.w3.org/2000/svg" width="61" height="61" viewBox="0 0 61 61">
  <g id="Group_615" data-name="Group 615" transform="translate(-1627 -5144)">
    <circle id="Ellipse_20" data-name="Ellipse 20" cx="30.5" cy="30.5" r="30.5" transform="translate(1627 5144)" fill="#fff"/>
    <g id="instagram-fill_19_" data-name="instagram-fill (19)" transform="translate(1643.641 5160.627)">
      <path id="Path_182" data-name="Path 182" d="M0,0H28.615V28.615H0Z" fill="none"/>
      <path id="Path_183" data-name="Path 183" d="M13.923,2c3.239,0,3.644.012,4.915.072a8.783,8.783,0,0,1,2.895.554A5.813,5.813,0,0,1,23.845,4,5.852,5.852,0,0,1,25.22,6.113a8.808,8.808,0,0,1,.554,2.895c.056,1.271.072,1.675.072,4.915s-.012,3.644-.072,4.915a8.814,8.814,0,0,1-.554,2.895,6.087,6.087,0,0,1-3.487,3.487,8.808,8.808,0,0,1-2.895.554c-1.271.056-1.675.072-4.915.072s-3.644-.012-4.915-.072a8.814,8.814,0,0,1-2.895-.554,6.087,6.087,0,0,1-3.487-3.487,8.777,8.777,0,0,1-.554-2.895C2.015,17.566,2,17.162,2,13.923s.012-3.644.072-4.915a8.777,8.777,0,0,1,.554-2.895A5.818,5.818,0,0,1,4,4,5.839,5.839,0,0,1,6.113,2.626a8.777,8.777,0,0,1,2.895-.554C10.279,2.015,10.683,2,13.923,2Zm0,5.961a5.961,5.961,0,1,0,5.961,5.961A5.961,5.961,0,0,0,13.923,7.961Zm7.75-.3a1.49,1.49,0,1,0-1.49,1.49A1.49,1.49,0,0,0,21.673,7.663Zm-7.75,2.683a3.577,3.577,0,1,1-3.577,3.577A3.577,3.577,0,0,1,13.923,10.346Z" transform="translate(0.385 0.385)" fill="#d14127"/>
    </g>
  </g>
</svg>
