<svg xmlns="http://www.w3.org/2000/svg" width="106.788" height="94.966" viewBox="0 0 106.788 94.966">
  <g id="_8" data-name="8" transform="translate(-327.344 -23.207)">
    <path id="Path_733" data-name="Path 733" d="M327.344,99.55l2.948,1.7,38.627,7.674L370.6,74.578Z" transform="translate(0 9.247)" fill="#d8d8d8" opacity="0.55"/>
    <g id="Group_443" data-name="Group 443" transform="translate(347.285 23.207)">
      <g id="Group_424" data-name="Group 424" transform="translate(0 2.808)">
        <path id="Path_734" data-name="Path 734" d="M344.81,98.69l65.212-37.848,20.3,11.721-65.213,37.848Z" transform="translate(-344.141 -19.241)" fill="#f5f5f5"/>
        <path id="Path_735" data-name="Path 735" d="M354.835,64.147,420.047,26.3l-10.025,40.76L344.81,104.907Z" transform="translate(-344.141 -25.459)" fill="#d8d0ca"/>
        <path id="Path_736" data-name="Path 736" d="M419.351,26.5l-.047-.255L354.092,64.09l.047.255,9.967,53.282,65.213-37.848Z" transform="translate(-342.47 -25.469)" fill="#fff"/>
        <path id="Path_737" data-name="Path 737" d="M399.592,39.9,357.251,64.476l8.8,46.364,42.6-24.723Z" transform="translate(-341.902 -23.01)" fill="#ee5337"/>
        <path id="Path_738" data-name="Path 738" d="M392.69,41.7l17.378-10.091,8.8,46.365-17.378,10.09Z" transform="translate(-335.523 -24.502)" fill="#ffaf3b"/>
        <path id="Path_739" data-name="Path 739" d="M418.171,25.587,352.958,63.435l1.338.772,65.213-37.848Z" transform="translate(-342.674 -25.587)" fill="#fff7f0"/>
        <path id="Path_740" data-name="Path 740" d="M355.911,58.69l9.967,53.282L344.243,99.48l10.284-41.818,1.338.772Zm-.975-.188L344.911,99.263l20.3,11.721L355.452,58.8l-.516-.3Z" transform="translate(-344.243 -19.813)" fill="#d8d0ca"/>
      </g>
      <g id="Group_442" data-name="Group 442" transform="translate(9.257)">
        <g id="Group_425" data-name="Group 425" transform="translate(60.976)">
          <path id="Path_741" data-name="Path 741" d="M408.821,27.555l-2.111,1.228.423,2.262,2.111-1.228Z" transform="translate(-403.233 -22.424)" fill="#d8d0ca"/>
          <path id="Path_742" data-name="Path 742" d="M409.574,26.6c-.824-1.9-2.618-3.394-4.085-3.394a1.611,1.611,0,0,0-1.4.715,3.17,3.17,0,0,0,.074,2.951,6.536,6.536,0,0,0,.985,1.578l.605-.352a5.932,5.932,0,0,1-.962-1.5,2.623,2.623,0,0,1-.13-2.3.921.921,0,0,1,.825-.4c1.173,0,2.755,1.364,3.455,2.979a2.615,2.615,0,0,1,.13,2.3.922.922,0,0,1-.825.4,2.112,2.112,0,0,1-.747-.169l-.262.152.1.517a2.73,2.73,0,0,0,.912.186,1.611,1.611,0,0,0,1.4-.715A3.172,3.172,0,0,0,409.574,26.6Z" transform="translate(-403.763 -23.207)" fill="#efeae5"/>
          <path id="Path_743" data-name="Path 743" d="M406.114,23.67c-.06.133.135.189.212.225a3.946,3.946,0,0,1,.793.5,5.392,5.392,0,0,1,1.552,2.05c.044.1.279-.02.238-.109C408,24.349,406.227,23.422,406.114,23.67Z" transform="translate(-403.342 -23.131)" fill="#fff"/>
        </g>
        <g id="Group_426" data-name="Group 426" transform="translate(57.166 2.201)">
          <path id="Path_744" data-name="Path 744" d="M405.591,29.419l-2.111,1.228.423,2.262,2.111-1.228Z" transform="translate(-400.004 -24.29)" fill="#d8d0ca"/>
          <path id="Path_745" data-name="Path 745" d="M406.346,28.466c-.825-1.9-2.62-3.394-4.086-3.394a1.61,1.61,0,0,0-1.4.714,3.176,3.176,0,0,0,.074,2.952,6.529,6.529,0,0,0,.985,1.576l.605-.352a5.854,5.854,0,0,1-.961-1.5,2.612,2.612,0,0,1-.13-2.3.92.92,0,0,1,.824-.4c1.173,0,2.757,1.364,3.456,2.979a2.61,2.61,0,0,1,.129,2.3.923.923,0,0,1-.825.4,2.118,2.118,0,0,1-.747-.169l-.262.152.1.517a2.757,2.757,0,0,0,.912.185,1.61,1.61,0,0,0,1.4-.714A3.175,3.175,0,0,0,406.346,28.466Z" transform="translate(-400.534 -25.072)" fill="#efeae5"/>
          <path id="Path_746" data-name="Path 746" d="M402.885,25.535c-.061.133.133.189.212.225a3.959,3.959,0,0,1,.793.5,5.39,5.39,0,0,1,1.551,2.05c.044.1.278-.02.238-.109C404.769,26.214,403,25.287,402.885,25.535Z" transform="translate(-400.113 -24.996)" fill="#fff"/>
        </g>
        <g id="Group_427" data-name="Group 427" transform="translate(53.355 4.401)">
          <path id="Path_747" data-name="Path 747" d="M402.362,31.284l-2.111,1.228.423,2.262,2.111-1.228Z" transform="translate(-396.774 -26.155)" fill="#d8d0ca"/>
          <path id="Path_748" data-name="Path 748" d="M403.115,30.329c-.825-1.9-2.62-3.392-4.086-3.392a1.608,1.608,0,0,0-1.4.714,3.175,3.175,0,0,0,.073,2.952,6.59,6.59,0,0,0,.985,1.576l.607-.352a5.826,5.826,0,0,1-.962-1.5,2.615,2.615,0,0,1-.13-2.3.923.923,0,0,1,.824-.4c1.173,0,2.757,1.365,3.456,2.981a2.608,2.608,0,0,1,.129,2.3.921.921,0,0,1-.825.4,2.1,2.1,0,0,1-.747-.169l-.262.152.1.518a2.757,2.757,0,0,0,.912.185,1.609,1.609,0,0,0,1.4-.714A3.174,3.174,0,0,0,403.115,30.329Z" transform="translate(-397.304 -26.937)" fill="#efeae5"/>
          <path id="Path_749" data-name="Path 749" d="M399.655,27.4c-.06.133.133.189.212.224a3.951,3.951,0,0,1,.793.5,5.383,5.383,0,0,1,1.55,2.048c.044.1.278-.02.238-.107C401.539,28.079,399.767,27.152,399.655,27.4Z" transform="translate(-396.883 -26.861)" fill="#fff"/>
        </g>
        <g id="Group_428" data-name="Group 428" transform="translate(49.543 6.601)">
          <path id="Path_750" data-name="Path 750" d="M399.132,33.149l-2.111,1.228.423,2.262,2.111-1.228Z" transform="translate(-393.544 -28.018)" fill="#d8d0ca"/>
          <path id="Path_751" data-name="Path 751" d="M399.885,32.195c-.824-1.9-2.618-3.394-4.085-3.394a1.611,1.611,0,0,0-1.4.715,3.173,3.173,0,0,0,.073,2.951,6.578,6.578,0,0,0,.986,1.578l.605-.352a5.91,5.91,0,0,1-.962-1.5,2.623,2.623,0,0,1-.13-2.3.921.921,0,0,1,.825-.4c1.173,0,2.755,1.364,3.455,2.979a2.61,2.61,0,0,1,.129,2.3.92.92,0,0,1-.824.4,2.124,2.124,0,0,1-.748-.169l-.261.152.1.517a2.725,2.725,0,0,0,.912.186,1.611,1.611,0,0,0,1.4-.715A3.175,3.175,0,0,0,399.885,32.195Z" transform="translate(-394.074 -28.801)" fill="#efeae5"/>
          <path id="Path_752" data-name="Path 752" d="M396.425,29.264c-.06.133.133.189.212.225a3.894,3.894,0,0,1,.793.5,5.377,5.377,0,0,1,1.55,2.05c.045.1.28-.02.238-.109C398.309,29.943,396.538,29.016,396.425,29.264Z" transform="translate(-393.653 -28.725)" fill="#fff"/>
        </g>
        <g id="Group_429" data-name="Group 429" transform="translate(45.732 8.802)">
          <path id="Path_753" data-name="Path 753" d="M395.9,35.013l-2.111,1.228.423,2.262,2.111-1.228Z" transform="translate(-390.314 -29.884)" fill="#d8d0ca"/>
          <path id="Path_754" data-name="Path 754" d="M396.657,34.06c-.825-1.9-2.62-3.394-4.086-3.394a1.61,1.61,0,0,0-1.4.714,3.173,3.173,0,0,0,.074,2.952,6.529,6.529,0,0,0,.985,1.576l.605-.352a5.854,5.854,0,0,1-.96-1.5,2.617,2.617,0,0,1-.131-2.3.922.922,0,0,1,.825-.4c1.173,0,2.756,1.364,3.456,2.979a2.618,2.618,0,0,1,.129,2.3.923.923,0,0,1-.825.4,2.112,2.112,0,0,1-.747-.169l-.262.152.1.517a2.757,2.757,0,0,0,.912.185,1.61,1.61,0,0,0,1.4-.714A3.175,3.175,0,0,0,396.657,34.06Z" transform="translate(-390.844 -30.666)" fill="#efeae5"/>
          <path id="Path_755" data-name="Path 755" d="M393.2,31.129c-.061.133.133.189.212.225a3.959,3.959,0,0,1,.793.5,5.389,5.389,0,0,1,1.55,2.05c.044.1.279-.02.238-.109C395.08,31.808,393.308,30.881,393.2,31.129Z" transform="translate(-390.423 -30.59)" fill="#fff"/>
        </g>
        <g id="Group_430" data-name="Group 430" transform="translate(41.921 11.002)">
          <path id="Path_756" data-name="Path 756" d="M392.672,36.878l-2.111,1.228.423,2.262L393.1,39.14Z" transform="translate(-387.085 -31.749)" fill="#d8d0ca"/>
          <path id="Path_757" data-name="Path 757" d="M393.427,35.923c-.825-1.9-2.62-3.392-4.086-3.392a1.608,1.608,0,0,0-1.4.714,3.172,3.172,0,0,0,.073,2.952A6.552,6.552,0,0,0,389,37.774l.605-.352a5.852,5.852,0,0,1-.961-1.5,2.615,2.615,0,0,1-.13-2.3.923.923,0,0,1,.824-.4c1.173,0,2.756,1.365,3.456,2.981a2.608,2.608,0,0,1,.129,2.3.921.921,0,0,1-.825.4,2.1,2.1,0,0,1-.747-.169l-.262.152.1.518a2.756,2.756,0,0,0,.912.185,1.608,1.608,0,0,0,1.4-.715A3.175,3.175,0,0,0,393.427,35.923Z" transform="translate(-387.615 -32.531)" fill="#efeae5"/>
          <path id="Path_758" data-name="Path 758" d="M389.966,32.994c-.061.133.133.189.212.224a3.986,3.986,0,0,1,.793.5,5.4,5.4,0,0,1,1.551,2.048c.044.1.279-.02.238-.107C391.85,33.673,390.078,32.746,389.966,32.994Z" transform="translate(-387.194 -32.455)" fill="#fff"/>
        </g>
        <g id="Group_431" data-name="Group 431" transform="translate(38.11 13.202)">
          <path id="Path_759" data-name="Path 759" d="M389.443,38.743l-2.111,1.228.423,2.262L389.866,41Z" transform="translate(-383.855 -33.612)" fill="#d8d0ca"/>
          <path id="Path_760" data-name="Path 760" d="M390.2,37.789c-.824-1.9-2.62-3.394-4.085-3.394a1.611,1.611,0,0,0-1.4.715,3.173,3.173,0,0,0,.073,2.951,6.609,6.609,0,0,0,.985,1.578l.606-.352a5.879,5.879,0,0,1-.962-1.5,2.615,2.615,0,0,1-.13-2.3.921.921,0,0,1,.825-.4c1.173,0,2.755,1.364,3.455,2.979a2.61,2.61,0,0,1,.129,2.3.92.92,0,0,1-.824.4,2.123,2.123,0,0,1-.748-.169l-.261.152.1.517a2.718,2.718,0,0,0,.912.186,1.613,1.613,0,0,0,1.4-.715A3.175,3.175,0,0,0,390.2,37.789Z" transform="translate(-384.385 -34.395)" fill="#efeae5"/>
          <path id="Path_761" data-name="Path 761" d="M386.736,34.858c-.06.133.133.189.212.225a3.894,3.894,0,0,1,.793.5,5.378,5.378,0,0,1,1.551,2.05c.044.1.278-.02.238-.109C388.62,35.536,386.849,34.61,386.736,34.858Z" transform="translate(-383.964 -34.319)" fill="#fff"/>
        </g>
        <g id="Group_432" data-name="Group 432" transform="translate(34.299 15.402)">
          <path id="Path_762" data-name="Path 762" d="M386.213,40.607,384.1,41.835l.423,2.262,2.111-1.228Z" transform="translate(-380.625 -35.478)" fill="#d8d0ca"/>
          <path id="Path_763" data-name="Path 763" d="M386.966,39.654c-.824-1.9-2.618-3.394-4.085-3.394a1.61,1.61,0,0,0-1.4.714,3.173,3.173,0,0,0,.074,2.952,6.528,6.528,0,0,0,.985,1.576l.605-.352a5.853,5.853,0,0,1-.961-1.5,2.617,2.617,0,0,1-.131-2.3.921.921,0,0,1,.825-.4c1.173,0,2.757,1.364,3.456,2.979a2.618,2.618,0,0,1,.129,2.3.923.923,0,0,1-.825.4,2.112,2.112,0,0,1-.747-.169l-.262.152.1.517a2.756,2.756,0,0,0,.912.185,1.61,1.61,0,0,0,1.4-.714A3.172,3.172,0,0,0,386.966,39.654Z" transform="translate(-381.155 -36.26)" fill="#efeae5"/>
          <path id="Path_764" data-name="Path 764" d="M383.507,36.723c-.061.133.133.189.211.225a3.894,3.894,0,0,1,.793.5,5.38,5.38,0,0,1,1.552,2.05c.044.1.279-.02.238-.109C385.391,37.4,383.619,36.475,383.507,36.723Z" transform="translate(-380.734 -36.184)" fill="#fff"/>
        </g>
        <g id="Group_433" data-name="Group 433" transform="translate(30.488 17.603)">
          <path id="Path_765" data-name="Path 765" d="M382.983,42.472,380.872,43.7l.423,2.262,2.111-1.228Z" transform="translate(-377.395 -37.343)" fill="#d8d0ca"/>
          <path id="Path_766" data-name="Path 766" d="M383.738,41.519c-.825-1.9-2.62-3.394-4.086-3.394a1.612,1.612,0,0,0-1.4.714,3.176,3.176,0,0,0,.074,2.952,6.55,6.55,0,0,0,.985,1.576l.605-.352a5.852,5.852,0,0,1-.961-1.5,2.615,2.615,0,0,1-.13-2.3.923.923,0,0,1,.824-.4c1.173,0,2.756,1.365,3.456,2.981a2.608,2.608,0,0,1,.129,2.3.921.921,0,0,1-.825.4,2.1,2.1,0,0,1-.747-.169l-.262.152.1.518a2.757,2.757,0,0,0,.912.185,1.608,1.608,0,0,0,1.4-.715A3.172,3.172,0,0,0,383.738,41.519Z" transform="translate(-377.926 -38.125)" fill="#efeae5"/>
          <path id="Path_767" data-name="Path 767" d="M380.277,38.588c-.061.133.133.189.212.225a3.961,3.961,0,0,1,.793.5,5.4,5.4,0,0,1,1.55,2.048c.044.1.279-.02.238-.107C382.161,39.267,380.389,38.34,380.277,38.588Z" transform="translate(-377.505 -38.049)" fill="#fff"/>
        </g>
        <g id="Group_434" data-name="Group 434" transform="translate(26.677 19.803)">
          <path id="Path_768" data-name="Path 768" d="M379.754,44.337l-2.111,1.228.423,2.262,2.111-1.228Z" transform="translate(-374.166 -39.206)" fill="#d8d0ca"/>
          <path id="Path_769" data-name="Path 769" d="M380.507,43.383c-.825-1.9-2.62-3.394-4.085-3.394a1.61,1.61,0,0,0-1.4.715,3.173,3.173,0,0,0,.073,2.951,6.57,6.57,0,0,0,.985,1.578l.606-.352a5.847,5.847,0,0,1-.962-1.5,2.615,2.615,0,0,1-.13-2.3.921.921,0,0,1,.825-.4c1.173,0,2.755,1.364,3.455,2.979a2.61,2.61,0,0,1,.129,2.3.92.92,0,0,1-.824.4,2.123,2.123,0,0,1-.748-.169l-.262.152.1.517a2.73,2.73,0,0,0,.913.186,1.609,1.609,0,0,0,1.4-.715A3.171,3.171,0,0,0,380.507,43.383Z" transform="translate(-374.696 -39.989)" fill="#efeae5"/>
          <path id="Path_770" data-name="Path 770" d="M377.047,40.452c-.06.133.133.189.212.225a3.9,3.9,0,0,1,.793.5,5.379,5.379,0,0,1,1.551,2.05c.044.1.278-.02.238-.109C378.931,41.131,377.159,40.2,377.047,40.452Z" transform="translate(-374.275 -39.913)" fill="#fff"/>
        </g>
        <g id="Group_435" data-name="Group 435" transform="translate(22.866 22.003)">
          <path id="Path_771" data-name="Path 771" d="M376.524,46.2l-2.111,1.228.423,2.262,2.111-1.228Z" transform="translate(-370.936 -41.072)" fill="#d8d0ca"/>
          <path id="Path_772" data-name="Path 772" d="M377.277,45.248c-.824-1.9-2.618-3.394-4.085-3.394a1.61,1.61,0,0,0-1.4.714,3.172,3.172,0,0,0,.074,2.952,6.527,6.527,0,0,0,.985,1.576l.605-.352a5.889,5.889,0,0,1-.962-1.5,2.62,2.62,0,0,1-.13-2.3.921.921,0,0,1,.825-.4c1.173,0,2.755,1.364,3.455,2.979a2.615,2.615,0,0,1,.13,2.3.925.925,0,0,1-.825.4,2.112,2.112,0,0,1-.747-.169l-.262.152.1.517a2.757,2.757,0,0,0,.912.185,1.61,1.61,0,0,0,1.4-.714A3.172,3.172,0,0,0,377.277,45.248Z" transform="translate(-371.466 -41.854)" fill="#efeae5"/>
          <path id="Path_773" data-name="Path 773" d="M373.817,42.317c-.06.133.134.189.212.225a3.9,3.9,0,0,1,.793.5,5.392,5.392,0,0,1,1.552,2.05c.044.1.278-.02.238-.109C375.7,43,373.93,42.069,373.817,42.317Z" transform="translate(-371.045 -41.778)" fill="#fff"/>
        </g>
        <g id="Group_436" data-name="Group 436" transform="translate(19.055 24.204)">
          <path id="Path_774" data-name="Path 774" d="M373.294,48.066l-2.111,1.228.423,2.262,2.111-1.228Z" transform="translate(-367.706 -42.937)" fill="#d8d0ca"/>
          <path id="Path_775" data-name="Path 775" d="M374.049,47.113c-.825-1.9-2.62-3.394-4.086-3.394a1.61,1.61,0,0,0-1.4.714,3.176,3.176,0,0,0,.074,2.952,6.552,6.552,0,0,0,.985,1.576l.605-.352a5.853,5.853,0,0,1-.961-1.5,2.615,2.615,0,0,1-.13-2.3.923.923,0,0,1,.824-.4c1.173,0,2.756,1.365,3.456,2.981a2.608,2.608,0,0,1,.129,2.3.921.921,0,0,1-.825.4,2.092,2.092,0,0,1-.747-.169l-.262.152.1.518a2.756,2.756,0,0,0,.912.185,1.608,1.608,0,0,0,1.4-.715A3.172,3.172,0,0,0,374.049,47.113Z" transform="translate(-368.237 -43.719)" fill="#efeae5"/>
          <path id="Path_776" data-name="Path 776" d="M370.588,44.182c-.061.133.133.189.212.225a3.958,3.958,0,0,1,.793.5,5.4,5.4,0,0,1,1.551,2.048c.044.1.279-.02.238-.107C372.472,44.861,370.7,43.934,370.588,44.182Z" transform="translate(-367.816 -43.643)" fill="#fff"/>
        </g>
        <g id="Group_437" data-name="Group 437" transform="translate(15.244 26.404)">
          <path id="Path_777" data-name="Path 777" d="M370.065,49.931l-2.111,1.228.423,2.262,2.111-1.228Z" transform="translate(-364.477 -44.8)" fill="#d8d0ca"/>
          <path id="Path_778" data-name="Path 778" d="M370.818,48.977c-.825-1.9-2.62-3.394-4.086-3.394a1.609,1.609,0,0,0-1.4.715,3.173,3.173,0,0,0,.073,2.951,6.574,6.574,0,0,0,.985,1.578l.607-.352a5.846,5.846,0,0,1-.962-1.5,2.615,2.615,0,0,1-.13-2.3.92.92,0,0,1,.824-.4c1.173,0,2.757,1.364,3.456,2.979a2.61,2.61,0,0,1,.129,2.3.921.921,0,0,1-.825.4,2.124,2.124,0,0,1-.747-.169l-.262.152.1.517a2.73,2.73,0,0,0,.912.186,1.61,1.61,0,0,0,1.4-.715A3.171,3.171,0,0,0,370.818,48.977Z" transform="translate(-365.007 -45.583)" fill="#efeae5"/>
          <path id="Path_779" data-name="Path 779" d="M367.358,46.046c-.06.133.133.189.212.225a3.9,3.9,0,0,1,.793.5,5.379,5.379,0,0,1,1.551,2.05c.044.1.278-.02.238-.109C369.242,46.725,367.47,45.8,367.358,46.046Z" transform="translate(-364.586 -45.507)" fill="#fff"/>
        </g>
        <g id="Group_438" data-name="Group 438" transform="translate(11.433 28.604)">
          <path id="Path_780" data-name="Path 780" d="M366.835,51.8l-2.111,1.228.423,2.262,2.111-1.228Z" transform="translate(-361.247 -46.666)" fill="#d8d0ca"/>
          <path id="Path_781" data-name="Path 781" d="M367.588,50.842c-.824-1.9-2.618-3.394-4.085-3.394a1.61,1.61,0,0,0-1.4.714,3.176,3.176,0,0,0,.073,2.952,6.57,6.57,0,0,0,.986,1.576l.605-.352a5.891,5.891,0,0,1-.962-1.5,2.62,2.62,0,0,1-.13-2.3.921.921,0,0,1,.825-.4c1.173,0,2.755,1.364,3.455,2.979a2.61,2.61,0,0,1,.129,2.3.923.923,0,0,1-.824.4,2.124,2.124,0,0,1-.748-.169l-.261.152.1.517a2.751,2.751,0,0,0,.912.185,1.61,1.61,0,0,0,1.4-.714A3.176,3.176,0,0,0,367.588,50.842Z" transform="translate(-361.777 -47.448)" fill="#efeae5"/>
          <path id="Path_782" data-name="Path 782" d="M364.128,47.911c-.06.133.135.189.212.225a3.894,3.894,0,0,1,.793.5,5.377,5.377,0,0,1,1.551,2.05c.045.1.28-.02.238-.109C366.012,48.589,364.241,47.663,364.128,47.911Z" transform="translate(-361.356 -47.372)" fill="#fff"/>
        </g>
        <g id="Group_439" data-name="Group 439" transform="translate(7.622 30.805)">
          <path id="Path_783" data-name="Path 783" d="M363.605,53.66l-2.111,1.228.423,2.262,2.111-1.228Z" transform="translate(-358.017 -48.531)" fill="#d8d0ca"/>
          <path id="Path_784" data-name="Path 784" d="M364.36,52.707c-.825-1.9-2.62-3.394-4.086-3.394a1.61,1.61,0,0,0-1.4.714,3.172,3.172,0,0,0,.074,2.952,6.55,6.55,0,0,0,.985,1.576l.605-.352a5.853,5.853,0,0,1-.96-1.5,2.62,2.62,0,0,1-.131-2.3.925.925,0,0,1,.825-.4c1.173,0,2.757,1.365,3.456,2.981a2.612,2.612,0,0,1,.129,2.3.921.921,0,0,1-.825.4,2.087,2.087,0,0,1-.747-.169l-.262.152.1.518a2.757,2.757,0,0,0,.912.185,1.608,1.608,0,0,0,1.4-.715A3.172,3.172,0,0,0,364.36,52.707Z" transform="translate(-358.547 -49.313)" fill="#efeae5"/>
          <path id="Path_785" data-name="Path 785" d="M360.9,49.776c-.061.133.133.189.212.225a3.961,3.961,0,0,1,.793.5,5.394,5.394,0,0,1,1.551,2.048c.044.1.279-.02.238-.107C362.783,50.455,361.011,49.528,360.9,49.776Z" transform="translate(-358.126 -49.237)" fill="#fff"/>
        </g>
        <g id="Group_440" data-name="Group 440" transform="translate(3.811 33.004)">
          <path id="Path_786" data-name="Path 786" d="M360.375,55.525l-2.111,1.228.423,2.262,2.111-1.228Z" transform="translate(-354.788 -50.394)" fill="#d8d0ca"/>
          <path id="Path_787" data-name="Path 787" d="M361.129,54.571c-.825-1.9-2.62-3.394-4.086-3.394a1.609,1.609,0,0,0-1.4.715,3.173,3.173,0,0,0,.073,2.951,6.536,6.536,0,0,0,.985,1.578l.605-.352a5.873,5.873,0,0,1-.961-1.5,2.615,2.615,0,0,1-.13-2.3.92.92,0,0,1,.824-.4c1.173,0,2.756,1.364,3.456,2.979a2.61,2.61,0,0,1,.129,2.3.921.921,0,0,1-.825.4,2.124,2.124,0,0,1-.747-.169l-.262.152.1.517a2.729,2.729,0,0,0,.912.186,1.611,1.611,0,0,0,1.4-.715A3.175,3.175,0,0,0,361.129,54.571Z" transform="translate(-355.318 -51.177)" fill="#efeae5"/>
          <path id="Path_788" data-name="Path 788" d="M357.669,51.64c-.061.133.133.189.212.225a3.927,3.927,0,0,1,.793.5,5.39,5.39,0,0,1,1.551,2.05c.044.1.278-.02.238-.109C359.553,52.319,357.781,51.392,357.669,51.64Z" transform="translate(-354.897 -51.101)" fill="#fff"/>
        </g>
        <g id="Group_441" data-name="Group 441" transform="translate(0 35.205)">
          <path id="Path_789" data-name="Path 789" d="M357.146,57.389l-2.111,1.228.423,2.262,2.111-1.228Z" transform="translate(-351.558 -52.26)" fill="#d8d0ca"/>
          <path id="Path_790" data-name="Path 790" d="M357.9,56.436c-.824-1.9-2.62-3.394-4.085-3.394a1.608,1.608,0,0,0-1.4.715,3.173,3.173,0,0,0,.073,2.951,6.6,6.6,0,0,0,.985,1.576l.607-.35a5.886,5.886,0,0,1-.962-1.5,2.613,2.613,0,0,1-.13-2.3.921.921,0,0,1,.825-.4c1.173,0,2.755,1.364,3.455,2.979a2.61,2.61,0,0,1,.129,2.3.923.923,0,0,1-.824.4,2.124,2.124,0,0,1-.748-.169l-.261.152.1.517a2.745,2.745,0,0,0,.912.185,1.612,1.612,0,0,0,1.4-.714A3.175,3.175,0,0,0,357.9,56.436Z" transform="translate(-352.088 -53.042)" fill="#efeae5"/>
          <path id="Path_791" data-name="Path 791" d="M354.439,53.505c-.06.133.133.189.212.225a3.9,3.9,0,0,1,.793.5,5.378,5.378,0,0,1,1.55,2.05c.045.1.279-.02.238-.109C356.323,54.184,354.552,53.257,354.439,53.505Z" transform="translate(-351.667 -52.966)" fill="#fff"/>
        </g>
      </g>
    </g>
    <g id="Group_446" data-name="Group 446" transform="translate(364.571 35.823)">
      <g id="Group_444" data-name="Group 444" transform="translate(0 9.837)">
        <path id="Path_792" data-name="Path 792" d="M360.129,68.489a.057.057,0,0,1-.058-.047l-1.169-6.25a.5.5,0,0,1,.24-.523l6.187-3.6a.2.2,0,0,1,.3.136l1.2,6.012a.489.489,0,0,1-.234.519l-6.437,3.743Z" transform="translate(-358.893 -39.389)" fill="#f15e59" opacity="0.6"/>
        <path id="Path_793" data-name="Path 793" d="M366.984,64.53a.056.056,0,0,1-.057-.046l-1.171-6.252a.5.5,0,0,1,.24-.523l6.188-3.6a.2.2,0,0,1,.3.136l1.2,6.012a.5.5,0,0,1-.24.523l-6.431,3.739Z" transform="translate(-357.659 -40.102)" fill="#f57c78" opacity="0.8"/>
        <path id="Path_794" data-name="Path 794" d="M373.843,60.572a.057.057,0,0,1-.058-.048l-1.169-6.25a.5.5,0,0,1,.239-.522l6.186-3.6a.2.2,0,0,1,.3.136l1.2,6.01a.5.5,0,0,1-.237.525l-6.433,3.739Z" transform="translate(-356.424 -40.814)" fill="#f15e59" opacity="0.6"/>
        <path id="Path_795" data-name="Path 795" d="M380.7,56.609a.056.056,0,0,1-.057-.046l-1.171-6.253a.5.5,0,0,1,.24-.523l6.123-3.559a.256.256,0,0,1,.38.171l1.184,5.939a.5.5,0,0,1-.238.523L380.727,56.6Z" transform="translate(-355.19 -41.522)" fill="#fff7f0"/>
        <path id="Path_796" data-name="Path 796" d="M387.555,52.65a.06.06,0,0,1-.058-.047l-1.168-6.25a.5.5,0,0,1,.24-.524l6.121-3.559a.257.257,0,0,1,.38.172l1.186,5.939a.5.5,0,0,1-.24.523l-6.432,3.738Z" transform="translate(-353.956 -42.235)" fill="#fff7f0"/>
        <path id="Path_797" data-name="Path 797" d="M361.419,75.36a.062.062,0,0,1-.058-.048l-1.169-6.252a.5.5,0,0,1,.24-.522l6.187-3.6a.2.2,0,0,1,.3.136l1.2,6.012a.5.5,0,0,1-.238.523l-6.433,3.739Z" transform="translate(-358.661 -38.153)" fill="#f15e59" opacity="0.6"/>
        <path id="Path_798" data-name="Path 798" d="M368.274,71.4a.06.06,0,0,1-.057-.046L367.047,65.1a.5.5,0,0,1,.24-.522l6.188-3.6a.2.2,0,0,1,.3.136l1.2,6.012a.5.5,0,0,1-.24.523L368.3,71.393Z" transform="translate(-357.426 -38.865)" fill="#fff7f0"/>
        <path id="Path_799" data-name="Path 799" d="M375.133,67.442a.058.058,0,0,1-.058-.048l-1.169-6.25a.5.5,0,0,1,.24-.523l6.186-3.6a.2.2,0,0,1,.3.136l1.2,6.013a.5.5,0,0,1-.238.522l-6.433,3.739Z" transform="translate(-356.192 -39.578)" fill="#f57c78" opacity="0.8"/>
        <path id="Path_800" data-name="Path 800" d="M381.988,63.479a.058.058,0,0,1-.057-.048l-1.169-6.253a.5.5,0,0,1,.238-.52l6.123-3.559a.256.256,0,0,1,.38.171l1.184,5.939a.492.492,0,0,1-.234.52l-6.437,3.742Z" transform="translate(-354.958 -40.286)" fill="#f15e59" opacity="0.6"/>
        <path id="Path_801" data-name="Path 801" d="M388.845,59.52a.06.06,0,0,1-.058-.047l-1.168-6.252a.5.5,0,0,1,.238-.523l6.122-3.559a.256.256,0,0,1,.38.171l1.186,5.939a.5.5,0,0,1-.24.523l-6.431,3.739Z" transform="translate(-353.724 -40.998)" fill="#f57c78" opacity="0.8"/>
        <path id="Path_802" data-name="Path 802" d="M362.708,82.229a.058.058,0,0,1-.058-.047l-1.169-6.252a.5.5,0,0,1,.24-.522l6.187-3.6a.2.2,0,0,1,.3.136l1.2,6.012a.5.5,0,0,1-.238.523l-6.433,3.739Z" transform="translate(-358.428 -36.916)" fill="#fff7f0"/>
        <path id="Path_803" data-name="Path 803" d="M369.565,78.271a.059.059,0,0,1-.058-.048l-1.168-6.25a.5.5,0,0,1,.24-.524l6.186-3.6a.2.2,0,0,1,.3.136l1.2,6.012a.49.49,0,0,1-.235.519l-6.436,3.743Z" transform="translate(-357.194 -37.629)" fill="#f15e59" opacity="0.6"/>
        <path id="Path_804" data-name="Path 804" d="M376.423,74.312a.059.059,0,0,1-.057-.046L375.2,68.014a.5.5,0,0,1,.24-.523l6.187-3.6a.2.2,0,0,1,.3.136l1.2,6.012a.5.5,0,0,1-.238.523L376.451,74.3Z" transform="translate(-355.96 -38.341)" fill="#fff7f0"/>
        <path id="Path_805" data-name="Path 805" d="M383.279,70.349a.06.06,0,0,1-.058-.047l-1.169-6.252a.5.5,0,0,1,.24-.522l6.122-3.56a.257.257,0,0,1,.38.172l1.184,5.939a.492.492,0,0,1-.234.52l-6.437,3.741Z" transform="translate(-354.726 -39.049)" fill="#f57c78" opacity="0.8"/>
        <path id="Path_806" data-name="Path 806" d="M390.135,66.39a.059.059,0,0,1-.057-.046l-1.169-6.253a.5.5,0,0,1,.238-.522l6.123-3.56a.256.256,0,0,1,.38.172l1.185,5.939a.5.5,0,0,1-.24.523l-6.431,3.738Z" transform="translate(-353.491 -39.762)" fill="#fff7f0"/>
        <path id="Path_807" data-name="Path 807" d="M364,89.1a.06.06,0,0,1-.057-.046L362.771,82.8a.5.5,0,0,1,.24-.522l6.188-3.6a.2.2,0,0,1,.3.136l1.2,6.012a.5.5,0,0,1-.238.523l-6.432,3.739Z" transform="translate(-358.196 -35.68)" fill="#f57c78" opacity="0.8"/>
        <path id="Path_808" data-name="Path 808" d="M370.855,85.14a.058.058,0,0,1-.058-.047l-1.168-6.25a.5.5,0,0,1,.238-.523l6.187-3.6a.2.2,0,0,1,.3.136l1.2,6.013a.491.491,0,0,1-.235.52l-6.436,3.741Z" transform="translate(-356.962 -36.392)" fill="#fff7f0"/>
        <path id="Path_809" data-name="Path 809" d="M377.712,81.182a.056.056,0,0,1-.057-.047l-1.171-6.252a.5.5,0,0,1,.24-.523l6.187-3.6a.2.2,0,0,1,.3.136l1.2,6.013a.5.5,0,0,1-.238.522l-6.432,3.739Z" transform="translate(-355.728 -37.105)" fill="#f57c78" opacity="0.8"/>
        <path id="Path_810" data-name="Path 810" d="M384.57,77.219a.058.058,0,0,1-.058-.048l-1.169-6.25a.5.5,0,0,1,.241-.523l6.121-3.559a.256.256,0,0,1,.38.171l1.186,5.939a.5.5,0,0,1-.24.523L384.6,77.211Z" transform="translate(-354.493 -37.813)" fill="#f15e59" opacity="0.6"/>
        <path id="Path_811" data-name="Path 811" d="M391.425,73.26a.057.057,0,0,1-.057-.046L390.2,66.961a.5.5,0,0,1,.24-.522l6.122-3.559a.256.256,0,0,1,.38.171l1.185,5.939a.489.489,0,0,1-.234.519l-6.437,3.742Z" transform="translate(-353.259 -38.525)" fill="#f57c78" opacity="0.8"/>
        <path id="Path_812" data-name="Path 812" d="M365.289,95.969a.056.056,0,0,1-.057-.046l-1.171-6.252a.5.5,0,0,1,.24-.523l6.188-3.6a.2.2,0,0,1,.3.136l1.2,6.012a.5.5,0,0,1-.238.523l-6.432,3.739Z" transform="translate(-357.964 -34.443)" fill="#fff7f0"/>
        <path id="Path_813" data-name="Path 813" d="M372.145,92.011a.059.059,0,0,1-.058-.048l-1.168-6.25a.5.5,0,0,1,.24-.523l6.186-3.6a.2.2,0,0,1,.3.136l1.2,6.012a.5.5,0,0,1-.24.523L372.174,92Z" transform="translate(-356.73 -35.156)" fill="#f15e59" opacity="0.6"/>
        <path id="Path_814" data-name="Path 814" d="M379,88.052a.057.057,0,0,1-.057-.047l-1.169-6.252a.5.5,0,0,1,.241-.524l6.184-3.6a.2.2,0,0,1,.3.136l1.2,6.007a.5.5,0,0,1-.237.527l-6.432,3.739Z" transform="translate(-355.495 -35.868)" fill="#fff7f0"/>
        <path id="Path_815" data-name="Path 815" d="M385.859,84.089a.058.058,0,0,1-.058-.048l-1.169-6.249a.5.5,0,0,1,.241-.524l6.121-3.559a.256.256,0,0,1,.38.172l1.186,5.939a.5.5,0,0,1-.24.523l-6.431,3.738Z" transform="translate(-354.261 -36.576)" fill="#ca413e" opacity="0.2"/>
        <path id="Path_816" data-name="Path 816" d="M392.716,80.13a.058.058,0,0,1-.058-.048l-1.168-6.25a.5.5,0,0,1,.24-.522l6.121-3.56a.256.256,0,0,1,.38.172l1.185,5.938a.492.492,0,0,1-.234.52l-6.437,3.742Z" transform="translate(-353.027 -37.289)" fill="#ca413e" opacity="0.2"/>
      </g>
      <g id="Group_445" data-name="Group 445" transform="translate(41.31 0)">
        <path id="Path_817" data-name="Path 817" d="M395.136,48.273a.058.058,0,0,1-.055-.046l-1.171-6.253a.5.5,0,0,1,.238-.523l6.124-3.559a.256.256,0,0,1,.38.171L401.836,44a.49.49,0,0,1-.235.52l-6.436,3.742Z" transform="translate(-393.902 -33.186)" fill="#f49037"/>
        <path id="Path_818" data-name="Path 818" d="M401.995,44.314a.06.06,0,0,1-.058-.047l-1.169-6.252a.5.5,0,0,1,.24-.523l6.122-3.559a.256.256,0,0,1,.38.172l1.186,5.939a.5.5,0,0,1-.24.522l-6.433,3.739Z" transform="translate(-392.668 -33.899)" fill="#fff7f0"/>
        <path id="Path_819" data-name="Path 819" d="M396.429,55.142a.057.057,0,0,1-.058-.047l-1.169-6.25a.5.5,0,0,1,.24-.522l6.122-3.56a.256.256,0,0,1,.38.171l1.184,5.939a.489.489,0,0,1-.234.519l-6.437,3.743Z" transform="translate(-393.669 -31.95)" fill="#fff7f0"/>
        <path id="Path_820" data-name="Path 820" d="M403.285,51.184a.06.06,0,0,1-.057-.046l-1.171-6.253a.5.5,0,0,1,.24-.523L408.42,40.8a.256.256,0,0,1,.38.171l1.185,5.939a.5.5,0,0,1-.24.523l-6.432,3.739Z" transform="translate(-392.435 -32.662)" fill="#f49037"/>
        <path id="Path_821" data-name="Path 821" d="M397.719,62.012a.057.057,0,0,1-.058-.047l-1.169-6.252a.5.5,0,0,1,.24-.522l6.122-3.559a.256.256,0,0,1,.38.171l1.185,5.939a.5.5,0,0,1-.238.523L397.746,62Z" transform="translate(-393.437 -30.713)" fill="#f49037"/>
        <path id="Path_822" data-name="Path 822" d="M404.574,58.054a.056.056,0,0,1-.057-.046l-1.171-6.253a.5.5,0,0,1,.24-.523l6.123-3.559a.256.256,0,0,1,.38.171l1.185,5.939a.5.5,0,0,1-.24.523L404.6,58.046Z" transform="translate(-392.203 -31.426)" fill="#fff7f0"/>
        <path id="Path_823" data-name="Path 823" d="M399.009,68.883a.058.058,0,0,1-.058-.048l-1.169-6.25a.5.5,0,0,1,.24-.523l6.122-3.559a.256.256,0,0,1,.38.171l1.185,5.939a.5.5,0,0,1-.238.523l-6.433,3.739Z" transform="translate(-393.205 -29.477)" fill="#fff7f0"/>
        <path id="Path_824" data-name="Path 824" d="M405.866,64.924a.059.059,0,0,1-.058-.047l-1.169-6.254a.5.5,0,0,1,.238-.52L411,54.543a.256.256,0,0,1,.38.171l1.184,5.934a.5.5,0,0,1-.238.527l-6.432,3.739Z" transform="translate(-391.971 -30.189)" fill="#f49037"/>
        <path id="Path_825" data-name="Path 825" d="M400.3,75.752a.054.054,0,0,1-.057-.046l-1.171-6.252a.5.5,0,0,1,.24-.523l6.123-3.559a.256.256,0,0,1,.38.171L407,71.484a.5.5,0,0,1-.239.523l-6.431,3.738Z" transform="translate(-392.973 -28.24)" fill="#c88043" opacity="0.2"/>
        <path id="Path_826" data-name="Path 826" d="M407.155,71.794a.058.058,0,0,1-.058-.048l-1.169-6.25a.5.5,0,0,1,.24-.522l6.122-3.56a.256.256,0,0,1,.38.171l1.184,5.937a.5.5,0,0,1-.237.525l-6.433,3.739Z" transform="translate(-391.738 -28.953)" fill="#c88043" opacity="0.2"/>
      </g>
    </g>
    <path id="Path_827" data-name="Path 827" d="M369.16,95.923l-3.673,2.123-.14-.749,3.673-2.124ZM371.4,93.8l-1.857,1.075.14.75,1.857-1.075Zm3.435-1.982L371.924,93.5l.14.75,2.911-1.684Zm-6.43,6.092-2.663,1.54-.139-.75,2.662-1.54Zm2.241-2.125-1.857,1.075.14.75,1.857-1.076Zm2.971-1.716-2.446,1.416.14.75,2.446-1.416Zm3.952-3-1.91,1.106-.14-.75,1.91-1.106Zm2.242-2.125-1.857,1.075.14.75,1.857-1.076Zm-2.995,4.11L374.3,94.5l-.14-.75,2.512-1.453Zm2.034-2.006L377.2,92l.14.75,1.65-.956Z" transform="translate(6.84 11.832)" fill="#fff7f0"/>
    <path id="Path_828" data-name="Path 828" d="M409.047,71.483l-2.91,1.684.139.749,2.911-1.683Zm2.734-.748-1.91,1.107-.14-.75,1.912-1.106Zm2.242-2.125-1.857,1.076.14.749,1.857-1.075Zm-2.6,3.882-2.512,1.454-.14-.75,2.512-1.453ZM414.3,70l-2.491,1.442.14.749,2.491-1.441Z" transform="translate(14.182 8.172)" fill="#fff7f0"/>
  </g>
</svg>
