<svg xmlns="http://www.w3.org/2000/svg" xmlns:xlink="http://www.w3.org/1999/xlink" width="78.406" height="118.856" viewBox="0 0 78.406 118.856">
  <defs>
    <linearGradient id="linear-gradient" y1="0.5" x2="1" y2="0.5" gradientUnits="objectBoundingBox">
      <stop offset="0.111" stop-color="#d4d4dd"/>
      <stop offset="0.268" stop-color="#d4d4dd"/>
      <stop offset="0.528" stop-color="#d4d4dd"/>
      <stop offset="0.534" stop-color="#d1d1db"/>
      <stop offset="0.565" stop-color="#c9cbd4"/>
      <stop offset="0.62" stop-color="#c7c9d3"/>
      <stop offset="0.757" stop-color="#c7c9d3"/>
      <stop offset="0.77" stop-color="#bbbecb"/>
      <stop offset="0.787" stop-color="#b4b7c6"/>
      <stop offset="0.837" stop-color="#b3b6c5"/>
      <stop offset="1" stop-color="#b3b6c5"/>
    </linearGradient>
    <linearGradient id="linear-gradient-2" x1="0.712" y1="0.921" x2="0.209" y2="0.192" gradientUnits="objectBoundingBox">
      <stop offset="0.111" stop-color="#e7e7f0"/>
      <stop offset="0.268" stop-color="#e7e7f0"/>
      <stop offset="0.528" stop-color="#e7e7f0"/>
      <stop offset="0.536" stop-color="#e3e3ed"/>
      <stop offset="0.566" stop-color="#dbdde7"/>
      <stop offset="0.62" stop-color="#d9dbe6"/>
      <stop offset="0.757" stop-color="#d9dbe6"/>
      <stop offset="0.758" stop-color="#d8dae5"/>
      <stop offset="0.77" stop-color="#cccfdd"/>
      <stop offset="0.788" stop-color="#c5c9d9"/>
      <stop offset="0.837" stop-color="#c4c8d8"/>
      <stop offset="1" stop-color="#c4c8d8"/>
    </linearGradient>
    <linearGradient id="linear-gradient-3" x1="0.711" y1="0.917" x2="0.191" y2="0.188" gradientUnits="objectBoundingBox">
      <stop offset="0" stop-color="#fff"/>
      <stop offset="0.111" stop-color="#fff"/>
      <stop offset="0.268" stop-color="#f1f1f6"/>
      <stop offset="0.528" stop-color="#e7e7f0"/>
      <stop offset="0.536" stop-color="#e3e3ed"/>
      <stop offset="0.566" stop-color="#dbdde7"/>
      <stop offset="0.62" stop-color="#d9dbe6"/>
      <stop offset="0.757" stop-color="#d9dbe6"/>
      <stop offset="0.758" stop-color="#d8dae5"/>
      <stop offset="0.77" stop-color="#cccfdd"/>
      <stop offset="0.788" stop-color="#c5c9d9"/>
      <stop offset="0.837" stop-color="#c4c8d8"/>
      <stop offset="1" stop-color="#c4c8d8"/>
    </linearGradient>
    <linearGradient id="linear-gradient-4" x1="0.662" y1="0.912" x2="0.141" y2="-0.155" xlink:href="#linear-gradient"/>
  </defs>
  <g id="Group_423" data-name="Group 423" transform="translate(-412.645 -23.838)">
    <path id="Path_667" data-name="Path 667" d="M421.574,153.826l46.746-26.989a13.609,13.609,0,0,1,12.314-.022l10.627,6.136c3.39,1.957,3.372,5.14-.038,7.109l-46.746,26.989a13.607,13.607,0,0,1-12.313.022l-10.627-6.136C418.145,158.978,418.162,155.8,421.574,153.826Z" transform="translate(-3.566 -25.839)" fill="#d8d8d8" opacity="0.32"/>
    <g id="Group_422" data-name="Group 422" transform="translate(404.994 23.838)">
      <path id="Path_668" data-name="Path 668" d="M488.886,78l-.373-6.095h0l-2.84-46.45a2.694,2.694,0,0,0-.046-.353l1.566-.521-2.485-.684v0a1.689,1.689,0,0,0-1.375.225L417.287,62.258a4.522,4.522,0,0,0-2.024,3.85l2.84,46.45.339,5.809c.087,1.431,1.135,2.026,2.341,1.33l66.079-37.846A4.517,4.517,0,0,0,488.886,78Z" transform="translate(-407.606 -23.838)" fill="#9b9c9f"/>
      <path id="Path_669" data-name="Path 669" d="M490.22,78.461l-.373-6.095-2.84-46.451c0-.027-.006-.052-.008-.078l.759-1.126-1.231-.338a1.155,1.155,0,0,0-.975.213L419.507,62.717a4.518,4.518,0,0,0-2.024,3.85l3.2,52.4a1.751,1.751,0,0,0,1.116,1.736h0l.964.391,1.11-1.646L488.2,82.311A4.518,4.518,0,0,0,490.22,78.461Z" transform="translate(-408.171 -23.966)" fill="#534046"/>
      <path id="Path_670" data-name="Path 670" d="M490.892,78.78l-.373-6.095-2.84-46.45c0-.028-.006-.052-.009-.079l.259-1.382-.619-.17a1.5,1.5,0,0,0-1.087.3L420.178,63.035a4.522,4.522,0,0,0-2.024,3.85l3.121,51.178a10.677,10.677,0,0,1,6.048.1l61.544-35.533A4.52,4.52,0,0,0,490.892,78.78Z" transform="translate(-408.342 -24.028)" fill="#5e4c52"/>
      <path id="Path_671" data-name="Path 671" d="M422.138,143.7l-1.257-.318-.017,6.976,2.757,1.034Z" transform="translate(-409.033 -54.267)" fill="#9b9c9f"/>
      <path id="Path_672" data-name="Path 672" d="M421.958,143.658l.362,5.938a2.088,2.088,0,0,0,.693,1.538l.887.332-1.483-7.692Z" transform="translate(-409.312 -54.336)" fill="url(#linear-gradient)"/>
      <g id="Group_374" data-name="Group 374" transform="translate(33.665 69.766)">
        <path id="Path_673" data-name="Path 673" d="M479.458,141.519l-10.071-4.139-4.365-1.793a1.671,1.671,0,0,1-.745-1.553l1.794-7.593,5.141-6.4-2.011-2.621-11.676,6.934-5.929,15.9,1.3,3.065,1.149-.149,7.839,7.312a5.945,5.945,0,0,0,7.092.764l10.727-6.369A1.884,1.884,0,0,0,479.458,141.519Z" transform="translate(-450.52 -117.425)" fill="url(#linear-gradient-2)"/>
        <path id="Path_674" data-name="Path 674" d="M454.73,133.376l-1.794,7.593a1.672,1.672,0,0,0,.745,1.554l4.087,3.812,4.453,4.155a5.945,5.945,0,0,0,7.092.764l10.727-6.369a1.974,1.974,0,0,0,.206-.143l.052-.042a2.012,2.012,0,0,0,.159-.149l.047-.054c.035-.04.068-.082.1-.125s.042-.057.06-.086.037-.062.054-.093a1.725,1.725,0,0,0,.093-.19c.008-.018.016-.036.023-.054.017-.045.034-.092.048-.139h0a1.88,1.88,0,0,0-1.087-2.289l-10.071-4.139-4.365-1.793a1.671,1.671,0,0,1-.745-1.553l1.794-7.593,5.141-6.4-2.011-2.621-11.676,6.934,2.011,2.621Z" transform="translate(-450.856 -117.425)" fill="url(#linear-gradient-3)"/>
        <path id="Path_675" data-name="Path 675" d="M479.9,145.315a1.709,1.709,0,0,1,.8,1.978c-.013.042-.028.083-.043.125l-.02.048a1.754,1.754,0,0,1-.084.172c-.02.034-.034.059-.048.083s-.037.053-.055.079-.057.075-.088.11l-.042.049a1.575,1.575,0,0,1-.143.133l-.047.038a1.689,1.689,0,0,1-.186.13l-10.726,6.37a5.766,5.766,0,0,1-2.939.807h0a5.742,5.742,0,0,1-3.93-1.548l-8.554-7.979-.016-.01a1.493,1.493,0,0,1-.662-1.352L454.9,137l3.9-4.857-.083.013-3.993,4.968-1.794,7.593a1.672,1.672,0,0,0,.745,1.554l4.087,3.812,4.453,4.155a5.945,5.945,0,0,0,7.092.764l10.727-6.369a1.974,1.974,0,0,0,.206-.143l.052-.042a2.012,2.012,0,0,0,.159-.149l.047-.054c.035-.04.068-.082.1-.125s.042-.057.06-.086.037-.062.054-.093a1.725,1.725,0,0,0,.093-.19c.008-.018.016-.036.023-.054.017-.045.034-.092.048-.139A1.881,1.881,0,0,0,479.9,145.315Z" transform="translate(-450.856 -121.17)" fill="url(#linear-gradient-4)"/>
        <path id="Path_676" data-name="Path 676" d="M480.178,146.175a1.849,1.849,0,0,1-.841,1.075L468.61,153.62a5.945,5.945,0,0,1-7.092-.764l-1.915-1.786-6.625-6.18a1.672,1.672,0,0,1-.745-1.554l1.794-7.593,5.141-6.4-2.011-2.621-5.068,6.96L452,133.8l-.026.13-1.79,8.826a3.237,3.237,0,0,0,1.488,2.971l9.845,8.207h0a5.945,5.945,0,0,0,7.092.764l10.727-6.37A1.871,1.871,0,0,0,480.178,146.175Z" transform="translate(-450.153 -119.792)" fill="#b7bbc9"/>
      </g>
      <g id="Group_375" data-name="Group 375" transform="translate(10.259 0.716)">
        <path id="Path_677" data-name="Path 677" d="M493.355,95.378l-.373-6.095-70.41,40.651.373,6.094c.087,1.431,1.135,2.026,2.341,1.33l66.045-38.131A4.522,4.522,0,0,0,493.355,95.378Z" transform="translate(-419.727 -41.212)" fill="#e2e2e2"/>
        <path id="Path_678" data-name="Path 678" d="M486.83,25.09,420.785,63.22a4.522,4.522,0,0,0-2.024,3.85l2.84,46.451,70.41-40.651-2.84-46.451c-.087-1.431-1.135-2.025-2.341-1.329Z" transform="translate(-418.755 -24.798)" fill="#68575c"/>
        <path id="Path_679" data-name="Path 679" d="M487.328,29.878l-64.68,37.343,2.726,44.588,64.68-37.343-2.726-44.588Z" transform="translate(-419.746 -26.091)" fill="#b8c1ff"/>
        <path id="Path_680" data-name="Path 680" d="M488.22,29.878l-1.85,1.068,2.612,42.713-62.829,36.275.115,1.874,64.68-37.343Z" transform="translate(-420.638 -26.091)" fill="#b8c1ff"/>
        <path id="Path_681" data-name="Path 681" d="M470.289,120.291l-1.395.805a1.512,1.512,0,0,0-.678,1.29l.1,1.613c.03.48.379.679.784.445l1.395-.805a1.517,1.517,0,0,0,.678-1.29l-.1-1.613c-.029-.48-.382-.678-.784-.445Z" transform="translate(-431.344 -49.079)" fill="#d9dbe6"/>
      </g>
      <g id="Group_387" data-name="Group 387" transform="translate(12.323 6.51)">
        <g id="Group_376" data-name="Group 376" transform="translate(8.947 26.519)">
          <path id="Path_682" data-name="Path 682" d="M438.818,82.772C437.75,75.3,433.527,72,433.527,72l6.677-3.856s5.365,3.416,6.073,12.1a2.823,2.823,0,0,1-1.493,2.708l-2.649,1.413A2.287,2.287,0,0,1,438.818,82.772Z" transform="translate(-433.527 -68.144)" fill="#a3c7c5"/>
        </g>
        <g id="Group_377" data-name="Group 377" transform="translate(2.497 30.239)">
          <path id="Path_683" data-name="Path 683" d="M430.03,87.474c-1.061-7.381-5.156-10.481-5.156-10.481l6.685-3.859s5.223,3.1,5.953,11.886a2.82,2.82,0,0,1-1.492,2.708l-2.649,1.413A2.3,2.3,0,0,1,430.03,87.474Z" transform="translate(-424.874 -73.134)" fill="#a3c7c5"/>
        </g>
        <g id="Group_378" data-name="Group 378" transform="translate(22.2 18.96)">
          <path id="Path_684" data-name="Path 684" d="M456.595,72.631c-1.068-7.47-5.291-10.772-5.291-10.772L457.981,58s5.365,3.416,6.073,12.1a2.821,2.821,0,0,1-1.492,2.708l-2.649,1.414A2.287,2.287,0,0,1,456.595,72.631Z" transform="translate(-451.304 -58.004)" fill="#a3c7c5"/>
        </g>
        <g id="Group_379" data-name="Group 379" transform="translate(15.749 22.679)">
          <path id="Path_685" data-name="Path 685" d="M447.807,77.333c-1.061-7.38-5.156-10.48-5.156-10.48l6.685-3.859s5.223,3.1,5.953,11.885a2.82,2.82,0,0,1-1.492,2.708L451.146,79A2.3,2.3,0,0,1,447.807,77.333Z" transform="translate(-442.651 -62.994)" fill="#a3c7c5"/>
        </g>
        <g id="Group_380" data-name="Group 380" transform="translate(35.452 11.4)">
          <path id="Path_686" data-name="Path 686" d="M474.372,62.491c-1.068-7.47-5.291-10.773-5.291-10.773l6.677-3.855s5.365,3.416,6.073,12.1a2.821,2.821,0,0,1-1.492,2.708l-2.649,1.414A2.287,2.287,0,0,1,474.372,62.491Z" transform="translate(-469.081 -47.863)" fill="#a3c7c5"/>
        </g>
        <g id="Group_381" data-name="Group 381" transform="translate(29.001 15.12)">
          <path id="Path_687" data-name="Path 687" d="M465.584,67.192c-1.061-7.38-5.156-10.48-5.156-10.48l6.685-3.859s5.223,3.1,5.953,11.885a2.82,2.82,0,0,1-1.492,2.708l-2.649,1.414A2.3,2.3,0,0,1,465.584,67.192Z" transform="translate(-460.428 -52.853)" fill="#a3c7c5"/>
        </g>
        <g id="Group_382" data-name="Group 382" transform="translate(48.704 3.84)">
          <path id="Path_688" data-name="Path 688" d="M492.149,52.35c-1.067-7.47-5.291-10.773-5.291-10.773l6.677-3.855s5.365,3.416,6.073,12.1a2.823,2.823,0,0,1-1.492,2.708l-2.649,1.413A2.288,2.288,0,0,1,492.149,52.35Z" transform="translate(-486.858 -37.722)" fill="#a3c7c5"/>
        </g>
        <g id="Group_383" data-name="Group 383" transform="translate(42.254 7.56)">
          <path id="Path_689" data-name="Path 689" d="M483.362,57.052c-1.061-7.381-5.156-10.481-5.156-10.481l6.684-3.859s5.223,3.1,5.953,11.885a2.816,2.816,0,0,1-1.492,2.708L486.7,58.719A2.3,2.3,0,0,1,483.362,57.052Z" transform="translate(-478.206 -42.712)" fill="#a3c7c5"/>
        </g>
        <g id="Group_384" data-name="Group 384" transform="translate(55.507)">
          <path id="Path_690" data-name="Path 690" d="M501.139,46.911c-1.061-7.381-5.156-10.481-5.156-10.481l6.685-3.859s5.222,3.1,5.953,11.886a2.82,2.82,0,0,1-1.493,2.708l-2.649,1.413A2.3,2.3,0,0,1,501.139,46.911Z" transform="translate(-495.983 -32.571)" fill="#a3c7c5"/>
        </g>
        <g id="Group_386" data-name="Group 386" transform="translate(0 35.335)">
          <g id="Group_385" data-name="Group 385" transform="translate(0 0)">
            <path id="Path_691" data-name="Path 691" d="M422.122,92.9c-.511-3.535-.263-7.565-.549-9.62a4.356,4.356,0,0,1,.789-3.307s6.981,1.409,7.733,10.291a2.816,2.816,0,0,1-1.492,2.708l-3.121,1.665A2.3,2.3,0,0,1,422.122,92.9Z" transform="translate(-421.525 -79.971)" fill="#a3c7c5"/>
          </g>
        </g>
      </g>
      <g id="Group_400" data-name="Group 400" transform="translate(13.161 5.219)">
        <g id="Group_389" data-name="Group 389" transform="translate(58.054)">
          <g id="Group_388" data-name="Group 388">
            <path id="Path_692" data-name="Path 692" d="M514.868,39.449c-.821-7.979-7.719-8.61-7.719-8.61l-6.626,3.826s6.216-.271,7.6,7.778a2.291,2.291,0,0,0,3.208,1l2.138-1.235A2.842,2.842,0,0,0,514.868,39.449Z" transform="translate(-500.523 -30.839)" fill="#ed3e3e"/>
          </g>
        </g>
        <g id="Group_390" data-name="Group 390" transform="translate(51.604 3.72)">
          <path id="Path_693" data-name="Path 693" d="M499.453,47.364c-1.373-7.962-7.582-7.705-7.582-7.705l6.633-3.829s6.872.535,7.719,8.61a2.84,2.84,0,0,1-1.4,2.757l-2.138,1.234A2.283,2.283,0,0,1,499.453,47.364Z" transform="translate(-491.871 -35.829)" fill="#d9591e"/>
        </g>
        <g id="Group_391" data-name="Group 391" transform="translate(45.153 7.44)">
          <path id="Path_694" data-name="Path 694" d="M490.785,52.284c-1.364-7.873-7.567-7.631-7.567-7.631l6.641-3.834s6.847.437,7.719,8.61a2.838,2.838,0,0,1-1.4,2.757l-2.138,1.234A2.277,2.277,0,0,1,490.785,52.284Z" transform="translate(-483.218 -40.819)" fill="#ed3e3e"/>
        </g>
        <g id="Group_392" data-name="Group 392" transform="translate(38.703 11.16)">
          <path id="Path_695" data-name="Path 695" d="M482.221,57.2c-1.355-7.784-7.656-7.556-7.656-7.556l6.648-3.838s6.822.34,7.719,8.61a2.834,2.834,0,0,1-1.4,2.757l-2.138,1.234A2.171,2.171,0,0,1,482.221,57.2Z" transform="translate(-474.565 -45.809)" fill="#d9591e"/>
        </g>
        <g id="Group_393" data-name="Group 393" transform="translate(32.252 14.88)">
          <path id="Path_696" data-name="Path 696" d="M473.552,62.124c-1.345-7.7-7.64-7.483-7.64-7.483l6.656-3.842s6.8.243,7.719,8.61a2.832,2.832,0,0,1-1.4,2.757L476.747,63.4A2.174,2.174,0,0,1,473.552,62.124Z" transform="translate(-465.912 -50.799)" fill="#ed3e3e"/>
        </g>
        <g id="Group_394" data-name="Group 394" transform="translate(25.802 18.6)">
          <path id="Path_697" data-name="Path 697" d="M464.779,67.044c-1.335-7.607-7.519-7.408-7.519-7.408l6.662-3.847s6.771.146,7.719,8.61a2.828,2.828,0,0,1-1.4,2.757L468.1,68.39A2.276,2.276,0,0,1,464.779,67.044Z" transform="translate(-457.26 -55.789)" fill="#d9591e"/>
        </g>
        <g id="Group_395" data-name="Group 395" transform="translate(19.352 22.319)">
          <path id="Path_698" data-name="Path 698" d="M456.11,71.964c-1.326-7.518-7.5-7.334-7.5-7.334l6.67-3.851s6.747.049,7.719,8.61a2.825,2.825,0,0,1-1.4,2.757l-2.138,1.234A2.281,2.281,0,0,1,456.11,71.964Z" transform="translate(-448.607 -60.779)" fill="#ed3e3e"/>
        </g>
        <g id="Group_396" data-name="Group 396" transform="translate(12.901 26.039)">
          <path id="Path_699" data-name="Path 699" d="M447.441,76.885c-1.316-7.43-7.487-7.26-7.487-7.26l6.677-3.856s6.721-.048,7.719,8.61a2.822,2.822,0,0,1-1.4,2.757l-2.138,1.234A2.287,2.287,0,0,1,447.441,76.885Z" transform="translate(-439.954 -65.769)" fill="#d9791e"/>
        </g>
        <g id="Group_397" data-name="Group 397" transform="translate(6.451 29.759)">
          <path id="Path_700" data-name="Path 700" d="M438.773,81.8c-1.307-7.341-7.472-7.186-7.472-7.186l6.685-3.859s6.7-.145,7.719,8.61a2.818,2.818,0,0,1-1.4,2.757l-2.138,1.234A2.3,2.3,0,0,1,438.773,81.8Z" transform="translate(-431.301 -70.759)" fill="#ed3e3e"/>
        </g>
        <path id="Path_701" data-name="Path 701" d="M431.652,89.666l-8.639-3.836-.325-5.309S432.955,77.616,431.652,89.666Z" transform="translate(-422.658 -43.406)" fill="#eb8638"/>
        <g id="Group_399" data-name="Group 399" transform="translate(0 33.478)">
          <g id="Group_398" data-name="Group 398">
            <path id="Path_702" data-name="Path 702" d="M430.1,86.725a8.543,8.543,0,0,0-7.426-7.341l-.03-.488,6.692-3.147s6.67-.242,7.719,8.61a2.816,2.816,0,0,1-1.4,2.757l-2.138,1.234A2.309,2.309,0,0,1,430.1,86.725Z" transform="translate(-422.648 -75.748)" fill="#f5a13a"/>
          </g>
        </g>
      </g>
      <g id="Group_413" data-name="Group 413" transform="translate(13.161 4.502)">
        <g id="Group_402" data-name="Group 402" transform="translate(58.054)">
          <g id="Group_401" data-name="Group 401">
            <path id="Path_703" data-name="Path 703" d="M515.35,39.2a10.5,10.5,0,0,0-8.2-9.327L500.523,33.7s6.7.445,8.08,8.495a2.291,2.291,0,0,0,3.208,1l2.138-1.235A2.843,2.843,0,0,0,515.35,39.2Z" transform="translate(-500.523 -29.878)" fill="#f0644b"/>
          </g>
        </g>
        <g id="Group_403" data-name="Group 403" transform="translate(51.604 3.72)">
          <path id="Path_704" data-name="Path 704" d="M499.935,47.119c-1.373-7.962-8.064-8.421-8.064-8.421l6.633-3.83a10.377,10.377,0,0,1,8.2,9.327,2.842,2.842,0,0,1-1.4,2.757l-2.138,1.234A2.283,2.283,0,0,1,499.935,47.119Z" transform="translate(-491.871 -34.868)" fill="#ffb754"/>
        </g>
        <g id="Group_404" data-name="Group 404" transform="translate(45.153 7.44)">
          <path id="Path_705" data-name="Path 705" d="M491.266,52.039c-1.363-7.873-8.048-8.347-8.048-8.347l6.641-3.834a10.262,10.262,0,0,1,8.2,9.327,2.838,2.838,0,0,1-1.4,2.757l-2.138,1.234A2.278,2.278,0,0,1,491.266,52.039Z" transform="translate(-483.218 -39.858)" fill="#f0644b"/>
        </g>
        <g id="Group_405" data-name="Group 405" transform="translate(38.703 11.16)">
          <path id="Path_706" data-name="Path 706" d="M482.6,56.959c-1.354-7.784-8.032-8.272-8.032-8.272l6.648-3.838a10.151,10.151,0,0,1,8.2,9.327,2.836,2.836,0,0,1-1.4,2.757l-2.138,1.234A2.275,2.275,0,0,1,482.6,56.959Z" transform="translate(-474.565 -44.848)" fill="#ffb754"/>
        </g>
        <g id="Group_406" data-name="Group 406" transform="translate(32.252 14.88)">
          <path id="Path_707" data-name="Path 707" d="M473.929,61.88c-1.345-7.7-8.017-8.2-8.017-8.2l6.656-3.843s7.278.959,8.2,9.327a2.832,2.832,0,0,1-1.4,2.757l-2.138,1.234A2.275,2.275,0,0,1,473.929,61.88Z" transform="translate(-465.912 -49.838)" fill="#f0644b"/>
        </g>
        <g id="Group_407" data-name="Group 407" transform="translate(25.802 18.6)">
          <path id="Path_708" data-name="Path 708" d="M465.26,66.8c-1.335-7.607-8-8.125-8-8.125l6.662-3.847s7.253.863,8.2,9.327a2.83,2.83,0,0,1-1.4,2.757l-2.138,1.234A2.277,2.277,0,0,1,465.26,66.8Z" transform="translate(-457.26 -54.828)" fill="#ffb754"/>
        </g>
        <g id="Group_408" data-name="Group 408" transform="translate(19.352 22.319)">
          <path id="Path_709" data-name="Path 709" d="M456.592,71.719a9.27,9.27,0,0,0-7.985-8.05l6.67-3.851s7.228.766,8.2,9.327a2.826,2.826,0,0,1-1.4,2.757l-2.138,1.234A2.281,2.281,0,0,1,456.592,71.719Z" transform="translate(-448.607 -59.818)" fill="#f0644b"/>
        </g>
        <g id="Group_409" data-name="Group 409" transform="translate(12.901 26.039)">
          <path id="Path_710" data-name="Path 710" d="M447.923,76.64a9.253,9.253,0,0,0-7.969-7.977l6.677-3.856s7.2.669,8.2,9.327a2.824,2.824,0,0,1-1.4,2.757l-2.138,1.234A2.287,2.287,0,0,1,447.923,76.64Z" transform="translate(-439.954 -64.808)" fill="#ffcc54"/>
        </g>
        <g id="Group_410" data-name="Group 410" transform="translate(6.451 29.759)">
          <path id="Path_711" data-name="Path 711" d="M439.254,81.56a9.24,9.24,0,0,0-7.953-7.9l6.685-3.859s7.177.572,8.2,9.327a2.82,2.82,0,0,1-1.4,2.757l-2.138,1.234A2.3,2.3,0,0,1,439.254,81.56Z" transform="translate(-431.301 -69.798)" fill="#f0644b"/>
        </g>
        <g id="Group_412" data-name="Group 412" transform="translate(0 33.479)">
          <g id="Group_411" data-name="Group 411">
            <path id="Path_712" data-name="Path 712" d="M430.586,86.481a9.224,9.224,0,0,0-7.938-7.829l6.692-3.864s7.153.474,8.2,9.327a2.818,2.818,0,0,1-1.4,2.757L434,88.105A2.3,2.3,0,0,1,430.586,86.481Z" transform="translate(-422.648 -74.788)" fill="#ffe254"/>
          </g>
        </g>
      </g>
      <path id="Path_713" data-name="Path 713" d="M495.874,35.691l-6.557,3.785L437.952,69.132l-6.63,3.832a8.661,8.661,0,0,0-2.148-2.778l6.664-3.846L487.2,36.684l6.422-3.7A9.559,9.559,0,0,1,495.874,35.691Z" transform="translate(-411.148 -26.165)" fill="#fff" opacity="0.12"/>
      <g id="Group_415" data-name="Group 415" transform="translate(22.498 32.187)">
        <path id="Path_714" data-name="Path 714" d="M437.663,109.937c-1.161,0-1.94-.961-2.034-2.509l-.445-7.269a7.646,7.646,0,0,1,3.412-6.5l40.793-23.552a3.073,3.073,0,0,1,1.523-.464c1.161,0,1.941.961,2.036,2.508l.445,7.269a7.645,7.645,0,0,1-3.413,6.5l-40.792,23.552a3.074,3.074,0,0,1-1.525.464Z" transform="translate(-435.174 -67.684)" fill="#a3c7c5"/>
        <g id="Group_414" data-name="Group 414" transform="translate(1.917)">
          <path id="Path_715" data-name="Path 715" d="M481.166,67.523,441.3,90.542a7.911,7.911,0,0,0-3.539,6.736l.359,5.871a2.838,2.838,0,0,0,1.6,2.694c.145.055,1.492.589,1.651.612.608.089.112-.554.845-.977l39.87-23.019a7.913,7.913,0,0,0,3.54-6.735l-.359-5.871c-.078-1.266.741-1.688-.014-2.1-.108-.06-1.548-.579-1.665-.619a2.948,2.948,0,0,0-2.415.394Z" transform="translate(-437.745 -67.015)" fill="#e7e7f0"/>
          <path id="Path_716" data-name="Path 716" d="M483.235,68.293l-39.87,23.019a7.908,7.908,0,0,0-3.54,6.735l.359,5.871c.153,2.5,1.984,3.546,4.094,2.329l39.87-23.019a7.912,7.912,0,0,0,3.539-6.736l-.359-5.871c-.153-2.5-1.987-3.544-4.094-2.328Z" transform="translate(-438.272 -67.211)" fill="#d9dbe6"/>
          <path id="Path_717" data-name="Path 717" d="M443.729,94.84a6.09,6.09,0,0,0-2.723,5.18l.359,5.871c.117,1.923,1.529,2.725,3.15,1.789L474.5,90.37l-.785-12.84Z" transform="translate(-438.573 -69.691)" fill="#fff"/>
          <path id="Path_718" data-name="Path 718" d="M498.516,76.922l-.309-5.05a3.3,3.3,0,0,0-.392-1.443c-.495-1.092-1.634-1.419-2.9-.691l-.233.134-8.545,4.934-.672.388.785,12.84,9.45-5.456a6.094,6.094,0,0,0,2.617-3.873A5.673,5.673,0,0,0,498.516,76.922Z" transform="translate(-449.893 -67.609)" fill="#fff"/>
          <path id="Path_719" data-name="Path 719" d="M494.492,80.457l.032-.078a4.624,4.624,0,0,0,.333-2.647,1.732,1.732,0,0,0-2.812-1.158,3.712,3.712,0,0,0-.421.285,5.5,5.5,0,0,0-2.01,4.934,1.751,1.751,0,0,0,1.2,1.458,2.115,2.115,0,0,0,1.609-.3,3.943,3.943,0,0,0,.423-.283,5.044,5.044,0,0,0,.952-.991l1.967,1.341.69-1.217Zm-1.87,1.131a2.311,2.311,0,0,1-.269.182,1.33,1.33,0,0,1-1.011.187,1.1,1.1,0,0,1-.754-.919,3.449,3.449,0,0,1,1.264-3.1,1.987,1.987,0,0,1,.263-.177,1.09,1.09,0,0,1,1.771.728,2.926,2.926,0,0,1-.21,1.667A3.469,3.469,0,0,1,492.623,81.588Z" transform="translate(-450.929 -69.358)" fill="#ee5337"/>
          <path id="Path_720" data-name="Path 720" d="M445.254,103.681l-.587.339.487,7.96.587-.339-.487-7.96Z" transform="translate(-439.507 -76.348)" fill="#5b8cce"/>
        </g>
      </g>
    </g>
  </g>
</svg>
