<svg xmlns="http://www.w3.org/2000/svg" width="61" height="61" viewBox="0 0 61 61">
  <g id="Group_613" data-name="Group 613" transform="translate(-1465 -5144)">
    <circle id="Ellipse_18" data-name="Ellipse 18" cx="30.5" cy="30.5" r="30.5" transform="translate(1465 5144)" fill="#fff"/>
    <g id="twitter-fill_20_" data-name="twitter-fill (20)" transform="translate(1481.206 5160.627)">
      <path id="Path_176" data-name="Path 176" d="M0,0H28.615V28.615H0Z" fill="none"/>
      <path id="Path_177" data-name="Path 177" d="M26.081,6.034a10,10,0,0,1-2.864.785A5,5,0,0,0,25.411,4.06a9.965,9.965,0,0,1-3.167,1.21,4.986,4.986,0,0,0-8.5,4.547A14.157,14.157,0,0,1,3.471,4.607a4.993,4.993,0,0,0,1.543,6.658,4.969,4.969,0,0,1-2.258-.624V10.7a4.989,4.989,0,0,0,4,4.889,5.019,5.019,0,0,1-2.252.086A4.99,4.99,0,0,0,9.16,19.142a10.008,10.008,0,0,1-7.381,2.065,14.1,14.1,0,0,0,7.642,2.241A14.091,14.091,0,0,0,23.61,9.261c0-.215-.006-.432-.015-.644a10.13,10.13,0,0,0,2.488-2.581Z" transform="translate(0.342 0.709)" fill="#d14127"/>
    </g>
  </g>
</svg>
