<svg xmlns="http://www.w3.org/2000/svg" width="61" height="61" viewBox="0 0 61 61">
  <g id="Group_616" data-name="Group 616" transform="translate(-1708 -5144)">
    <circle id="Ellipse_21" data-name="Ellipse 21" cx="30.5" cy="30.5" r="30.5" transform="translate(1708 5144)" fill="#fff"/>
    <g id="youtube-fill_2_" data-name="youtube-fill (2)" transform="translate(1724.219 5160.627)">
      <path id="Path_180" data-name="Path 180" d="M0,0H28.615V28.615H0Z" fill="none"/>
      <path id="Path_181" data-name="Path 181" d="M25.3,6.978a37.03,37.03,0,0,1,.545,6.56A37.03,37.03,0,0,1,25.3,20.1a3.352,3.352,0,0,1-2.311,2.411c-2.038.568-9.067.568-9.067.568s-7.026,0-9.067-.568A3.351,3.351,0,0,1,2.545,20.1,37.03,37.03,0,0,1,2,13.538a37.03,37.03,0,0,1,.545-6.56A3.352,3.352,0,0,1,4.855,4.568C6.9,4,13.923,4,13.923,4s7.03,0,9.067.568A3.351,3.351,0,0,1,25.3,6.978ZM11.538,17.711l7.154-4.173L11.538,9.365Z" transform="translate(0.385 0.769)" fill="#d14127"/>
    </g>
  </g>
</svg>
